SplineFontDB: 3.0
FontName: Parastoo-Bold
FullName: Parastoo Bold
FamilyName: Parastoo
Weight: Bold
Copyright: Copyright (c) 2016 by Saber Rastikerdar. All Rights Reserved.\nBased on DejaVu font.\nNon-Arabic(Latin) glyphs and data are imported from Lora font under the Open Font License.
Version: 2.0.0
ItalicAngle: 0
UnderlinePosition: -500
UnderlineWidth: 100
Ascent: 1638
Descent: 410
InvalidEm: 0
LayerCount: 2
Layer: 0 0 "Back" 1
Layer: 1 0 "Fore" 0
PreferredKerning: 4
XUID: [1021 502 1027637223 15924148]
UniqueID: 4028343
UseUniqueID: 1
FSType: 0
OS2Version: 1
OS2_WeightWidthSlopeOnly: 0
OS2_UseTypoMetrics: 1
CreationTime: 1431850356
ModificationTime: 1573730859
PfmFamily: 17
TTFWeight: 700
TTFWidth: 5
LineGap: 0
VLineGap: 0
Panose: 2 11 6 3 3 8 4 2 2 4
OS2TypoAscent: 2350
OS2TypoAOffset: 0
OS2TypoDescent: -1200
OS2TypoDOffset: 0
OS2TypoLinegap: 0
OS2WinAscent: 2350
OS2WinAOffset: 0
OS2WinDescent: 1200
OS2WinDOffset: 0
HheadAscent: 2350
HheadAOffset: 0
HheadDescent: -1200
HheadDOffset: 0
OS2SubXSize: 1331
OS2SubYSize: 1433
OS2SubXOff: 0
OS2SubYOff: 286
OS2SupXSize: 1331
OS2SupYSize: 1433
OS2SupXOff: 0
OS2SupYOff: 983
OS2StrikeYSize: 102
OS2StrikeYPos: 530
OS2CapHeight: 1638
OS2XHeight: 1082
OS2Vendor: '    '
OS2CodePages: 00000041.20080000
OS2UnicodeRanges: 80002003.80000000.00000008.00000000
Lookup: 1 9 0 "Single Substitution 1" { "Single Substitution 1 subtable"  } []
Lookup: 1 9 0 "'fina' Terminal Forms in Arabic lookup 9" { "'fina' Terminal Forms in Arabic lookup 9 subtable"  } ['fina' ('DFLT' <'dflt' > 'arab' <'FAR ' 'KUR ' 'URD ' 'dflt' > ) ]
Lookup: 1 9 0 "'medi' Medial Forms in Arabic lookup 11" { "'medi' Medial Forms in Arabic lookup 11 subtable"  } ['medi' ('DFLT' <'dflt' > 'arab' <'FAR ' 'KUR ' 'URD ' 'dflt' > ) ]
Lookup: 1 9 0 "'init' Initial Forms in Arabic lookup 13" { "'init' Initial Forms in Arabic lookup 13 subtable"  } ['init' ('DFLT' <'dflt' > 'arab' <'FAR ' 'KUR ' 'URD ' 'dflt' > ) ]

StartChar: exclam
Encoding: 33 33 1
GlifName: exclam
Width: 586
VWidth: -1
GlyphClass: 2
Flags: HW
LayerCount: 2
Fore
SplineSet
401.203125 46.162109375 m 0
 371.734375 16.720703125 335.803059896 1.99674479167 293.409179688 1.990234375 c 128
 251.136393229 1.99674479167 214.994791667 17.0888671875 184.984375 47.2666015625 c 0
 154.994791667 77.7555338542 140.299641927 112.833658854 140.898925781 152.500976562 c 0
 141.63297526 194.833658854 156.725260417 230.649088542 186.17578125 259.947265625 c 0
 215.391927083 288.649088542 251.136393229 303.145182292 293.409179688 303.435546875 c 0
 335.803059896 303.145182292 371.734375 288.674804687 401.203125 260.024414062 c 0
 431.067708333 230.674804687 445.973307292 195.102864583 445.919921875 153.30859375 c 0
 445.973307292 111.102864583 431.067708333 75.3873697917 401.203125 46.162109375 c 0
426.325195312 1224.76855469 m 6
 346.937823648 543.505181363 l 2
 344.312607883 523.835060454 328.867513021 514.291666667 300.602539062 514.875 c 0
 267.301235847 515.630283234 249.47191229 525.152306139 247.11456839 543.441068714 c 2
 159.345703125 1224.37011719 l 6
 131.739238764 1437.1188151 171.033509597 1543.49316406 277.228515625 1543.49316406 c 6
 306.19921875 1543.49316406 l 6
 410.733072917 1543.16438802 450.775065104 1436.92285156 426.325195312 1224.76855469 c 6
EndSplineSet
EndChar

StartChar: period
Encoding: 46 46 2
GlifName: period
Width: 586
VWidth: 3443
GlyphClass: 2
Flags: HW
LayerCount: 2
Fore
SplineSet
446 153 m 4
 446 69.5470989838 376.886618359 2 293 2 c 132
 212.333144386 2 141 70.1456991582 141 150 c 4
 141 235.164992005 207.487295147 303 293 303 c 4
 377.421159707 303 446 236.802446132 446 153 c 4
EndSplineSet
EndChar

StartChar: colon
Encoding: 58 58 3
GlifName: colon
Width: 585
VWidth: 3443
GlyphClass: 2
Flags: HW
LayerCount: 2
Fore
SplineSet
293 586 m 128
 212 586 141 654 141 734 c 0
 141 819 208 886 293 887 c 0
 377 886 446 821 446 737 c 24
 446 654 377 586 293 586 c 128
293 2 m 128
 212 2 141 70 141 150 c 0
 141 235 208 302 293 303 c 0
 377 302 446 237 446 153 c 24
 446 70 377 2 293 2 c 128
EndSplineSet
EndChar

StartChar: uni060C
Encoding: 1548 1548 5
GlifName: afii57388
Width: 586
VWidth: 3443
GlyphClass: 2
Flags: HW
LayerCount: 2
Fore
SplineSet
295 1 m 4
 185 1 133 72 133 186 c 4
 133 385 221 531 410 645 c 4
 474 681 522 634 459 589 c 4
 390 538 302 412 301 316 c 5
 392 302 452 254 452 158 c 4
 452 57 399 1 295 1 c 4
EndSplineSet
EndChar

StartChar: uni0615
Encoding: 1557 1557 6
GlifName: uni0615
Width: 0
VWidth: 3489
GlyphClass: 4
Flags: HW
AnchorPoint: "Anchor-10" 767.271 2009.75 mark 0
AnchorPoint: "Anchor-9" 767.271 2009.75 mark 0
AnchorPoint: "Anchor-1" 591.271 2889.22 basemark 0
AnchorPoint: "Anchor-1" 767.271 2009.75 mark 0
LayerCount: 2
Fore
SplineSet
1091.14949843 2284.18453755 m 0
 1091.14949843 2356.8466697 1041.60773589 2395.13459327 977.52489204 2395.13459327 c 0
 880.390330818 2395.13459327 784.560598678 2311.06675838 674.393554688 2149.61425781 c 1
 790.056640625 2149.61425781 l 2
 934.305355258 2149.99213972 1091.14949843 2171.58663025 1091.14949843 2284.18453755 c 0
1001.97120738 2512.26824912 m 0
 1104.73887039 2512.26824912 1178.06916692 2448.759704 1178.06916692 2342.52310798 c 0
 1178.06916692 2138.12986302 961.625324779 2050.07680402 739.424804688 2049.91210938 c 2
 479.942382812 2049.71972656 l 1
 420.115234375 2106.77148438 l 2
 406.163247533 2120.11195809 399.187254112 2130.33694303 399.187254112 2137.44643922 c 0
 399.187254112 2145.55831828 408.269041804 2149.61425781 426.432617188 2149.61425781 c 2
 566.337890625 2149.61425781 l 1
 534.750976562 2729.23339844 l 1
 625.635742188 2781.87988281 l 1
 625.635742188 2156.38378906 l 1
 750.046277381 2393.64014551 875.491432444 2512.26824912 1001.97120738 2512.26824912 c 0
EndSplineSet
EndChar

StartChar: uni061B
Encoding: 1563 1563 7
GlifName: uni061B_
Width: 586
VWidth: 3443
GlyphClass: 2
Flags: HW
LayerCount: 2
Fore
SplineSet
295 511 m 4
 185 511 133 582 133 696 c 4
 133 895 221 1041 410 1155 c 4
 474 1191 522 1144 459 1099 c 4
 390 1048 302 922 301 826 c 5
 392 812 452 764 452 668 c 4
 452 567 399 511 295 511 c 4
446 153 m 0
 446 69.5470989838 376.886618359 2 293 2 c 128
 212.333144386 2 141 70.1456991582 141 150 c 0
 141 235.164992005 207.487295147 303 293 303 c 0
 377.421159707 303 446 236.802446132 446 153 c 0
EndSplineSet
EndChar

StartChar: uni061F
Encoding: 1567 1567 8
GlifName: uni061F_
Width: 825
VWidth: 3431
GlyphClass: 2
Flags: HW
LayerCount: 2
Fore
SplineSet
586 153 m 0
 586 69 517 2 433 2 c 128
 352 2 281 70 281 150 c 0
 281 235 348 302 433 303 c 0
 517 302 586 237 586 153 c 0
457 1294 m 4
 368 1294 284 1228 284 1140 c 0
 284 963.440871898 541 915.249657577 541 671 c 0
 541 602 504 542 410 506 c 0
 392 500 380 505 372 524 c 2
 354 570 l 2
 348 586 355 598 378 605 c 0
 407 613 423 628 423 651 c 0
 423 809.77004 64 929.397460938 64 1171 c 0
 64 1385.80218697 219.4140625 1532 427 1532 c 0
 618 1532 736 1412 736 1216 c 0
 736 1133 694 1013 642 947 c 1
 569 987 l 1
 593 1030 621 1088 621 1141 c 0
 621 1231 564 1294 457 1294 c 4
EndSplineSet
EndChar

StartChar: uni0621
Encoding: 1569 1569 9
GlifName: uni0621
Width: 827
VWidth: 3802
GlyphClass: 2
Flags: HW
AnchorPoint: "Anchor-10" 410.878 1057.02 basechar 0
AnchorPoint: "Anchor-7" 419.36 -48.8262 basechar 0
LayerCount: 2
Fore
SplineSet
714.913085938 313.046875 m 2
 628.01171875 174.142578125 l 1
 430.718536575 162.347458188 248.563492267 93.5842438514 82.39453125 -4.1552734375 c 1
 133.36328125 234.192382812 l 1
 146.454427083 240.064127604 172.396158854 250.972330729 211.188476562 266.916992188 c 1
 155.172636294 330.84700539 127.16471616 392.844174443 127.16471616 452.908499347 c 0
 127.16471616 643.818657165 283.392321485 805.690721163 432.279010664 805.690721163 c 0
 571.114859738 805.690721163 654.585545095 729.07885977 705.798828125 595.166015625 c 1
 657.08203125 527.0390625 l 1
 571.616022569 569.262628422 498.358808475 590.374411383 437.310388967 590.374411383 c 0
 365.625672884 590.374411383 261.080274992 543.952672543 261.080274992 462.844938741 c 0
 261.080274992 391.19837234 333.564895415 354.96867836 394.855075525 354.96867836 c 0
 448.302822553 354.96867836 454.037915698 362.060620954 554.457179247 378.666035459 c 0
 642.819059749 393.555345153 687.772949219 401.388509115 689.318847656 402.165527344 c 0
 723.282942783 409.838016768 743.601738949 407.94510414 743.601738949 382.489551737 c 0
 743.601738949 366.884498331 734.038854612 343.736939419 714.913085938 313.046875 c 2
EndSplineSet
EndChar

StartChar: uni0627
Encoding: 1575 1575 15
GlifName: uni0627
Width: 464
VWidth: 3767
GlyphClass: 2
Flags: HW
AnchorPoint: "Anchor-10" 219.041 1656.42 basechar 0
AnchorPoint: "Anchor-7" 264.428 -212.065 basechar 0
LayerCount: 2
Fore
SplineSet
315 1575 m 0
 329 1575 335 1536 337 1492 c 0
 357 923 355 775 356 299 c 0
 356 176 290 25 165 -4 c 1
 155 620 139 1073 98 1358 c 1
 257 1528 l 2
 288 1559 307 1575 315 1575 c 0
EndSplineSet
Substitution2: "'fina' Terminal Forms in Arabic lookup 9 subtable" uniFE8E
EndChar

StartChar: uni062D
Encoding: 1581 1581 21
GlifName: uni062D_
Width: 1315
VWidth: 3802
GlyphClass: 2
Flags: HW
AnchorPoint: "Anchor-7" 644.792 -826.821 basechar 0
AnchorPoint: "Anchor-10" 595.28 1218.97 basechar 0
LayerCount: 2
Fore
SplineSet
81 575 m 1
 174 800 276 927 389 927 c 0
 450 927 638 876 979 777 c 0
 1049 756 1123 746 1200 746 c 2
 1220 746 l 2
 1262 746 1244 721 1234 696 c 2
 1139 471 l 1
 707 428 236 261 236 -91 c 0
 236 -296 510 -362 772 -362 c 0
 934 -362 1051.10351562 -343.551757812 1138 -327 c 4
 1222 -311 1226.14257812 -315.323242188 1199 -373 c 4
 1115 -549 958 -637 718 -637 c 0
 329 -637 94 -469 94 -135 c 0
 94 249 371 513 678 595 c 1
 577 614 485 648 373 648 c 0
 299 648 232 598 169 521 c 1
 81 575 l 1
EndSplineSet
Substitution2: "'fina' Terminal Forms in Arabic lookup 9 subtable" uniFEA2
Substitution2: "'medi' Medial Forms in Arabic lookup 11 subtable" uniFEA4
Substitution2: "'init' Initial Forms in Arabic lookup 13 subtable" uniFEA3
EndChar

StartChar: uni062F
Encoding: 1583 1583 23
GlifName: uni062F_
Width: 1047
VWidth: 3800
GlyphClass: 2
Flags: HW
AnchorPoint: "Anchor-10" 475.345 1250.18 basechar 0
AnchorPoint: "Anchor-7" 484.662 -216.64 basechar 0
LayerCount: 2
Fore
SplineSet
969 436 m 0
 969 111.482421875 735.797235017 2 413 2 c 0
 186 2 84 110 84 326 c 0
 84 375 97 446 122 541 c 1
 214 522 l 1
 212 501 210 481 210 459 c 0
 210 376 286 335 439 335 c 0
 571 335 821 350 821 428 c 0
 821 513.003999936 540 728 436 789 c 1
 500 1080 l 2
 505 1105 513 1113 524 1105 c 0
 741.916015625 964.827148438 969 751.86328125 969 436 c 0
EndSplineSet
PairPos2: "'kern' Horizontal Kerning lookup 0 subtable 4" uniFB90 dx=-120 dy=0 dh=-120 dv=0 dx=0 dy=0 dh=0 dv=0
PairPos2: "'kern' Horizontal Kerning lookup 0 subtable 4" uni06A9 dx=-120 dy=0 dh=-120 dv=0 dx=0 dy=0 dh=0 dv=0
PairPos2: "'kern' Horizontal Kerning lookup 0 subtable 4" uniFB94 dx=-120 dy=0 dh=-120 dv=0 dx=0 dy=0 dh=0 dv=0
PairPos2: "'kern' Horizontal Kerning lookup 0 subtable 4" uni06AF dx=-120 dy=0 dh=-120 dv=0 dx=0 dy=0 dh=0 dv=0
Substitution2: "'fina' Terminal Forms in Arabic lookup 9 subtable" uniFEAA
EndChar

StartChar: uni0631
Encoding: 1585 1585 25
GlifName: uni0631
Width: 794
VWidth: 3807
GlyphClass: 2
Flags: HW
AnchorPoint: "Anchor-10" 488.105 933.34 basechar 0
AnchorPoint: "Anchor-7" 341.096 -713.978 basechar 0
LayerCount: 2
Fore
SplineSet
721.232925721 84.1127894654 m 0
 721.232925721 -124.747971816 625.712751661 -338.626099944 520 -460 c 0
 461.767564707 -527.191271492 425.281215195 -552.393705515 298.620104758 -552.393705515 c 0
 234.279518726 -552.393705515 -64.7887701594 -523.79423285 -64.7887701594 -471.106880873 c 0
 -64.7887701594 -460.629276346 -47.9207573588 -449.120216388 -16 -440 c 0
 327 -342 577.958762887 -41.2922945547 577.958762887 51.6837695429 c 0
 577.958762887 113.38325008 523.639648438 204.752929688 385 351 c 5
 493 595 l 6
 509.108988764 631.394382022 520 628 549 592 c 4
 631.590977332 489.473269518 690.836791302 348.976288217 713 197 c 0
 718.476791376 159.444859133 721.232925721 121.82170184 721.232925721 84.1127894654 c 0
EndSplineSet
PairPos2: "'kern' Horizontal Kerning lookup 0 subtable 3" uni06C0 dx=-128 dy=0 dh=-128 dv=0 dx=0 dy=0 dh=0 dv=0
PairPos2: "'kern' Horizontal Kerning lookup 0 subtable 3" uni0621 dx=-128 dy=0 dh=-128 dv=0 dx=0 dy=0 dh=0 dv=0
PairPos2: "'kern' Horizontal Kerning lookup 0 subtable 2" uni0648 dx=-43 dy=0 dh=-43 dv=0 dx=0 dy=0 dh=0 dv=0
PairPos2: "'kern' Horizontal Kerning lookup 0 subtable 0" uniFB58 dx=20 dy=0 dh=20 dv=0 dx=0 dy=0 dh=0 dv=0
PairPos2: "'kern' Horizontal Kerning lookup 0 subtable 0" uni0632 dx=-43 dy=0 dh=-43 dv=0 dx=0 dy=0 dh=0 dv=0
PairPos2: "'kern' Horizontal Kerning lookup 0 subtable 0" uni0631 dx=-43 dy=0 dh=-43 dv=0 dx=0 dy=0 dh=0 dv=0
PairPos2: "'kern' Horizontal Kerning lookup 0 subtable 0" uni06CC dx=-43 dy=0 dh=-43 dv=0 dx=0 dy=0 dh=0 dv=0
PairPos2: "'kern' Horizontal Kerning lookup 0 subtable 0" uniFEEB dx=-148 dy=0 dh=-148 dv=0 dx=0 dy=0 dh=0 dv=0
PairPos2: "'kern' Horizontal Kerning lookup 0 subtable 0" uniFB7C dx=-135 dy=0 dh=-135 dv=0 dx=0 dy=0 dh=0 dv=0
PairPos2: "'kern' Horizontal Kerning lookup 0 subtable 0" uniFEDF dx=-148 dy=0 dh=-148 dv=0 dx=0 dy=0 dh=0 dv=0
PairPos2: "'kern' Horizontal Kerning lookup 0 subtable 0" uniFB90 dx=-213 dy=0 dh=-213 dv=0 dx=0 dy=0 dh=0 dv=0
PairPos2: "'kern' Horizontal Kerning lookup 0 subtable 0" uni06A9 dx=-213 dy=0 dh=-213 dv=0 dx=0 dy=0 dh=0 dv=0
PairPos2: "'kern' Horizontal Kerning lookup 0 subtable 0" uni0649 dx=-43 dy=0 dh=-43 dv=0 dx=0 dy=0 dh=0 dv=0
PairPos2: "'kern' Horizontal Kerning lookup 0 subtable 0" uni0647 dx=-148 dy=0 dh=-148 dv=0 dx=0 dy=0 dh=0 dv=0
PairPos2: "'kern' Horizontal Kerning lookup 0 subtable 0" uniFEE7 dx=-148 dy=0 dh=-148 dv=0 dx=0 dy=0 dh=0 dv=0
PairPos2: "'kern' Horizontal Kerning lookup 0 subtable 0" uniFEE3 dx=-148 dy=0 dh=-148 dv=0 dx=0 dy=0 dh=0 dv=0
PairPos2: "'kern' Horizontal Kerning lookup 0 subtable 0" uni0645 dx=-148 dy=0 dh=-148 dv=0 dx=0 dy=0 dh=0 dv=0
PairPos2: "'kern' Horizontal Kerning lookup 0 subtable 0" uni0644 dx=-43 dy=0 dh=-43 dv=0 dx=0 dy=0 dh=0 dv=0
PairPos2: "'kern' Horizontal Kerning lookup 0 subtable 0" uniFEDB dx=-213 dy=0 dh=-213 dv=0 dx=0 dy=0 dh=0 dv=0
PairPos2: "'kern' Horizontal Kerning lookup 0 subtable 0" uniFED7 dx=-148 dy=0 dh=-148 dv=0 dx=0 dy=0 dh=0 dv=0
PairPos2: "'kern' Horizontal Kerning lookup 0 subtable 0" uni0642 dx=-43 dy=0 dh=-43 dv=0 dx=0 dy=0 dh=0 dv=0
PairPos2: "'kern' Horizontal Kerning lookup 0 subtable 0" uniFED3 dx=-148 dy=0 dh=-148 dv=0 dx=0 dy=0 dh=0 dv=0
PairPos2: "'kern' Horizontal Kerning lookup 0 subtable 0" uni0641 dx=-148 dy=0 dh=-148 dv=0 dx=0 dy=0 dh=0 dv=0
PairPos2: "'kern' Horizontal Kerning lookup 0 subtable 0" uniFECF dx=-148 dy=0 dh=-148 dv=0 dx=0 dy=0 dh=0 dv=0
PairPos2: "'kern' Horizontal Kerning lookup 0 subtable 0" uniFECB dx=-148 dy=0 dh=-148 dv=0 dx=0 dy=0 dh=0 dv=0
PairPos2: "'kern' Horizontal Kerning lookup 0 subtable 0" uniFEC7 dx=-148 dy=0 dh=-148 dv=0 dx=0 dy=0 dh=0 dv=0
PairPos2: "'kern' Horizontal Kerning lookup 0 subtable 0" uni0638 dx=-148 dy=0 dh=-148 dv=0 dx=0 dy=0 dh=0 dv=0
PairPos2: "'kern' Horizontal Kerning lookup 0 subtable 0" uniFEC3 dx=-148 dy=0 dh=-148 dv=0 dx=0 dy=0 dh=0 dv=0
PairPos2: "'kern' Horizontal Kerning lookup 0 subtable 0" uni0637 dx=-148 dy=0 dh=-148 dv=0 dx=0 dy=0 dh=0 dv=0
PairPos2: "'kern' Horizontal Kerning lookup 0 subtable 0" uniFEBF dx=-148 dy=0 dh=-148 dv=0 dx=0 dy=0 dh=0 dv=0
PairPos2: "'kern' Horizontal Kerning lookup 0 subtable 0" uni0636 dx=-148 dy=0 dh=-148 dv=0 dx=0 dy=0 dh=0 dv=0
PairPos2: "'kern' Horizontal Kerning lookup 0 subtable 0" uniFEBB dx=-148 dy=0 dh=-148 dv=0 dx=0 dy=0 dh=0 dv=0
PairPos2: "'kern' Horizontal Kerning lookup 0 subtable 0" uni0635 dx=-148 dy=0 dh=-148 dv=0 dx=0 dy=0 dh=0 dv=0
PairPos2: "'kern' Horizontal Kerning lookup 0 subtable 0" uniFEB7 dx=-148 dy=0 dh=-148 dv=0 dx=0 dy=0 dh=0 dv=0
PairPos2: "'kern' Horizontal Kerning lookup 0 subtable 0" uni0634 dx=-148 dy=0 dh=-148 dv=0 dx=0 dy=0 dh=0 dv=0
PairPos2: "'kern' Horizontal Kerning lookup 0 subtable 0" uniFEB3 dx=-148 dy=0 dh=-148 dv=0 dx=0 dy=0 dh=0 dv=0
PairPos2: "'kern' Horizontal Kerning lookup 0 subtable 0" uni0633 dx=-148 dy=0 dh=-148 dv=0 dx=0 dy=0 dh=0 dv=0
PairPos2: "'kern' Horizontal Kerning lookup 0 subtable 0" uni0630 dx=-148 dy=0 dh=-148 dv=0 dx=0 dy=0 dh=0 dv=0
PairPos2: "'kern' Horizontal Kerning lookup 0 subtable 0" uni062F dx=-148 dy=0 dh=-148 dv=0 dx=0 dy=0 dh=0 dv=0
PairPos2: "'kern' Horizontal Kerning lookup 0 subtable 0" uniFEA7 dx=-148 dy=0 dh=-148 dv=0 dx=0 dy=0 dh=0 dv=0
PairPos2: "'kern' Horizontal Kerning lookup 0 subtable 0" uniFEA3 dx=-148 dy=0 dh=-148 dv=0 dx=0 dy=0 dh=0 dv=0
PairPos2: "'kern' Horizontal Kerning lookup 0 subtable 0" uniFE9F dx=-148 dy=0 dh=-148 dv=0 dx=0 dy=0 dh=0 dv=0
PairPos2: "'kern' Horizontal Kerning lookup 0 subtable 0" uniFE9B dx=-148 dy=0 dh=-148 dv=0 dx=0 dy=0 dh=0 dv=0
PairPos2: "'kern' Horizontal Kerning lookup 0 subtable 0" uni062B dx=-148 dy=0 dh=-148 dv=0 dx=0 dy=0 dh=0 dv=0
PairPos2: "'kern' Horizontal Kerning lookup 0 subtable 0" uniFE97 dx=-148 dy=0 dh=-148 dv=0 dx=0 dy=0 dh=0 dv=0
PairPos2: "'kern' Horizontal Kerning lookup 0 subtable 0" uni062A dx=-148 dy=0 dh=-148 dv=0 dx=0 dy=0 dh=0 dv=0
PairPos2: "'kern' Horizontal Kerning lookup 0 subtable 0" uni0629 dx=-148 dy=0 dh=-148 dv=0 dx=0 dy=0 dh=0 dv=0
PairPos2: "'kern' Horizontal Kerning lookup 0 subtable 0" uniFE91 dx=-53 dy=0 dh=-53 dv=0 dx=0 dy=0 dh=0 dv=0
PairPos2: "'kern' Horizontal Kerning lookup 0 subtable 0" uni0628 dx=-148 dy=0 dh=-148 dv=0 dx=0 dy=0 dh=0 dv=0
PairPos2: "'kern' Horizontal Kerning lookup 0 subtable 0" uni0627 dx=-148 dy=0 dh=-148 dv=0 dx=0 dy=0 dh=0 dv=0
PairPos2: "'kern' Horizontal Kerning lookup 0 subtable 0" uni0622 dx=-148 dy=0 dh=-148 dv=0 dx=0 dy=0 dh=0 dv=0
PairPos2: "'kern' Horizontal Kerning lookup 0 subtable 0" uniFB94 dx=-235 dy=0 dh=-235 dv=0 dx=0 dy=0 dh=0 dv=0
PairPos2: "'kern' Horizontal Kerning lookup 0 subtable 0" uni06AF dx=-235 dy=0 dh=-235 dv=0 dx=0 dy=0 dh=0 dv=0
PairPos2: "'kern' Horizontal Kerning lookup 0 subtable 0" uniFB56 dx=-148 dy=0 dh=-148 dv=0 dx=0 dy=0 dh=0 dv=0
PairPos2: "'kern' Horizontal Kerning lookup 0 subtable 0" uni067E dx=-148 dy=0 dh=-148 dv=0 dx=0 dy=0 dh=0 dv=0
Substitution2: "'fina' Terminal Forms in Arabic lookup 9 subtable" uniFEAE
EndChar

StartChar: uni0633
Encoding: 1587 1587 27
GlifName: uni0633
Width: 2333
VWidth: 3807
GlyphClass: 2
Flags: HW
AnchorPoint: "Anchor-7" 636.427 -790.57 basechar 0
AnchorPoint: "Anchor-10" 1686.47 1126.44 basechar 0
LayerCount: 2
Fore
SplineSet
1917 0 m 0
 1807 0 1721 63 1660 153 c 1
 1584 61 1507 0 1425 0 c 0
 1381 0 1336 13 1292 40 c 1
 1286 -387 1029 -600 651 -600 c 0
 305.448242188 -600 93 -473.096679688 93 -170 c 0
 93 -46 129 98 200 261 c 1
 290 223 l 1
 253 131 235 50 235 -19 c 0
 235 -214.5859375 410.442382812 -289 642 -289 c 0
 871 -289 1066 -224 1165 -103 c 1
 1110 50 1044 199 967 324 c 1
 1090 530 l 2
 1115.41992188 571.8671875 1127.54882812 590.751953125 1152 550 c 128
 1161 535 1179 503 1206 454 c 0
 1258 360 1298 333 1430 333 c 0
 1541 333 1606 389 1623 493 c 2
 1642 605 l 1
 1763 587 l 1
 1752 500 l 2
 1739.38183594 388.731445312 1797.60742188 333 1935 333 c 0
 2034 333 2083 359 2083 409 c 0
 2083 431 2044 496 1970 604 c 1
 2102 832 l 2
 2124 869 2135 857 2156 821 c 0
 2220 716 2254 591 2254 447 c 0
 2254 232 2120 0 1917 0 c 0
EndSplineSet
Substitution2: "'fina' Terminal Forms in Arabic lookup 9 subtable" uniFEB2
Substitution2: "'medi' Medial Forms in Arabic lookup 11 subtable" uniFEB4
Substitution2: "'init' Initial Forms in Arabic lookup 13 subtable" uniFEB3
EndChar

StartChar: uni0635
Encoding: 1589 1589 29
GlifName: uni0635
Width: 2570
VWidth: 3808
GlyphClass: 2
Flags: HW
AnchorPoint: "Anchor-7" 636.427 -790.57 basechar 0
AnchorPoint: "Anchor-10" 2050.47 1278.94 basechar 0
LayerCount: 2
Fore
SplineSet
1206 454 m 8
 1252 370 1296 340 1420 339 c 1
 1671 709 1911 893 2139 893 c 0
 2348.19824219 893 2478.00585938 751.08984375 2478.00585938 532.517578125 c 0
 2478.00585938 157.903320312 2143.34960938 -0 1653 0 c 2
 1524 0 l 2
 1428 0 1348 13 1292 40 c 1
 1286 -387 1029 -600 651 -600 c 0
 305 -600 93 -473 93 -170 c 0
 93 -46 129 98 200 261 c 1
 290 223 l 1
 253 131 235 50 235 -19 c 0
 235 -215 410 -289 642 -289 c 0
 871 -289 1066 -224 1165 -103 c 1
 1110 50 1044 199 967 324 c 1
 1090 530 l 2
 1113.36621094 568.943359375 1126.54882812 592.756835938 1152 550 c 128
 1161 535 1179 503 1206 454 c 8
2323 438 m 0
 2323 534 2216 588 2106 588 c 0
 1883 588 1716 449 1576 335 c 1
 1856 335 l 2
 2165 335 2323 369 2323 438 c 0
EndSplineSet
Substitution2: "'fina' Terminal Forms in Arabic lookup 9 subtable" uniFEBA
Substitution2: "'medi' Medial Forms in Arabic lookup 11 subtable" uniFEBC
Substitution2: "'init' Initial Forms in Arabic lookup 13 subtable" uniFEBB
EndChar

StartChar: uni0637
Encoding: 1591 1591 31
GlifName: uni0637
Width: 1605
VWidth: 3808
GlyphClass: 2
Flags: HW
AnchorPoint: "Anchor-7" 735.854 -221.413 basechar 0
AnchorPoint: "Anchor-10" 568.377 1634.21 basechar 0
LayerCount: 2
Fore
SplineSet
437 1358 m 5
 599 1529 l 6
 657 1589 676.90625 1609.47949219 678 1504 c 6
 694 611 l 5
 865 799 1030 893 1170 893 c 0
 1379.19824219 893 1509.00585938 751.08984375 1509.00585938 532.517578125 c 0
 1509.00585938 157.903320312 1174 3 684 0 c 2
 543 0 l 2
 472.958984375 0 414.041992188 16.28515625 362 52 c 0
 278 110 199 170 125 230 c 0
 82 265 61 290 61 307 c 0
 61 326 85 333 125 333 c 2
 448 335 l 1
 469 362 491 390 513 417 c 5
 506 733 486 1148 437 1358 c 5
1354 438 m 0
 1354 534 1247 588 1137 588 c 0
 914 588 747 449 607 335 c 1
 887 335 l 2
 1196 335 1354 369 1354 438 c 0
EndSplineSet
Substitution2: "'fina' Terminal Forms in Arabic lookup 9 subtable" uniFEC2
Substitution2: "'medi' Medial Forms in Arabic lookup 11 subtable" uniFEC4
Substitution2: "'init' Initial Forms in Arabic lookup 13 subtable" uniFEC3
EndChar

StartChar: uni0639
Encoding: 1593 1593 33
GlifName: uni0639
Width: 1305
VWidth: 3802
GlyphClass: 2
Flags: HW
AnchorPoint: "Anchor-7" 644.792 -826.821 basechar 0
AnchorPoint: "Anchor-10" 696.723 1429.26 basechar 0
LayerCount: 2
Fore
SplineSet
713 -639 m 0
 336 -639 94 -470 94 -129 c 0
 94 93 202 273 418 411 c 1
 343 499 306 581 306 658 c 0
 306 849 484 1073 697 1073 c 0
 854 1073 962 988 1039 829 c 1
 987 765 l 1
 885 806 796 826 720 826 c 0
 627 826 456 752 456 676 c 0
 456 651 629 532 664 532 c 0
 666 532 667 532 669 532 c 0
 808.842577124 554.31530486 949.034349885 575.493746794 1094 594 c 0
 1136 599 1151 579 1140 537 c 2
 1054 288 l 1
 700.004210153 282.124551206 236 182.948275446 236 -91 c 24
 236 -294 514 -364 773 -364 c 0
 935 -364 1051 -345 1138 -329 c 4
 1195 -318 1230 -310 1199 -375 c 4
 1115 -552 943 -639 713 -639 c 0
EndSplineSet
Substitution2: "'fina' Terminal Forms in Arabic lookup 9 subtable" uniFECA
Substitution2: "'medi' Medial Forms in Arabic lookup 11 subtable" uniFECC
Substitution2: "'init' Initial Forms in Arabic lookup 13 subtable" uniFECB
EndChar

StartChar: uni0640
Encoding: 1600 1600 35
GlifName: afii57440
Width: 279
VWidth: 3835
GlyphClass: 2
Flags: HW
AnchorPoint: "Anchor-10" 149.417 1391.76 basechar 0
AnchorPoint: "Anchor-7" 148.332 -177.021 basechar 0
LayerCount: 2
Fore
SplineSet
314 114 m 6
 314 38 312 0 285 0 c 2
 -5 0 l 2
 -48 0 -50 38 -50 113 c 2
 -50 219 l 2
 -50 295 -48 333 -5 333 c 2
 285 333 l 2
 312 333 314 294 314 217 c 6
 314 114 l 6
EndSplineSet
EndChar

StartChar: uni0643
Encoding: 1603 1603 38
GlifName: uni0643
Width: 1894
VWidth: 3767
GlyphClass: 2
Flags: HW
AnchorPoint: "Anchor-7" 876.157 -267.146 basechar 0
AnchorPoint: "Anchor-10" 966.54 1444.27 basechar 0
LayerCount: 2
Fore
SplineSet
1120.29296875 1286.95117188 m 0
 1126.74316406 1288.02636719 1132.00878906 1288 1137 1288 c 0
 1157.66601562 1288 1172 1280.91601562 1172 1263 c 0
 1172 1258.16015625 1170.86035156 1252.76953125 1168.73242188 1246.38574219 c 2
 1131.72070312 1140.35253906 l 1
 1130.66601562 1137.33007812 l 1
 1127.47949219 1137.0234375 l 2
 960.026367188 1120.8828125 881 1087.10449219 881 1039 c 0
 881 1012.66113281 927.490234375 989.166992188 1030.85839844 970.92578125 c 0
 1141.82226562 951.583007812 1200 886.25390625 1200 775 c 0
 1200 624.272460938 1073.37304688 551 927 551 c 0
 841.530273438 551 763.984375 563.068359375 694.418945312 586.256835938 c 2
 690.629882812 587.51953125 l 1
 691.024414062 591.494140625 l 1
 705.024414062 732.494140625 l 1
 705.65625 738.860351562 l 1
 711.681640625 736.708984375 l 2
 781.119140625 711.909179688 853.526367188 700 929 700 c 0
 1035.96875 700 1103 723.720703125 1103 773 c 0
 1103 798.801757812 1062.87597656 823.912109375 968.969726562 844.107421875 c 0
 853.125 868.49609375 794 937.736328125 794 1049 c 0
 794 1212.50488281 952.502929688 1266.9765625 1120.29296875 1286.95117188 c 0
1518 1358 m 1
 1680 1529 l 2
 1737 1590 1758 1609 1759 1504 c 2
 1768 605 l 2
 1768 599 1768 594 1768 589 c 0
 1768 18 1453 -57 831 -57 c 0
 352 -57 97 55 97 396 c 0
 97 521 136 639 213 755 c 1
 304 718 l 1
 268 628 250 560 250 509 c 0
 250 334 447 275 850 275 c 0
 1260 275 1585 277 1585 542 c 0
 1585 860 1567 1111 1518 1358 c 1
EndSplineSet
Substitution2: "'fina' Terminal Forms in Arabic lookup 9 subtable" uniFEDA
Substitution2: "'medi' Medial Forms in Arabic lookup 11 subtable" uniFEDC
Substitution2: "'init' Initial Forms in Arabic lookup 13 subtable" uniFEDB
EndChar

StartChar: uni0644
Encoding: 1604 1604 39
GlifName: uni0644
Width: 1399
VWidth: 3808
GlyphClass: 2
Flags: HW
AnchorPoint: "Anchor-10" 596.527 1034.82 basechar 0
AnchorPoint: "Anchor-7" 646.427 -790.57 basechar 0
LayerCount: 2
Fore
SplineSet
1235 1504 m 6
 1262 19 l 2
 1269.65465962 -402.006278916 987 -600 625 -600 c 0
 289 -600 98 -464 98 -161 c 0
 98 -43 134 98 205 261 c 1
 295 223 l 1
 262 140 240 74 240 -19 c 0
 240 -213 398 -288 638 -288 c 0
 875 -288 1034 -234 1115 -127 c 1
 1072 626 1031 1137 994 1358 c 5
 1156 1529 l 6
 1213.41605839 1589.60583942 1233.90625 1609.47949219 1235 1504 c 6
EndSplineSet
Substitution2: "'fina' Terminal Forms in Arabic lookup 9 subtable" uniFEDE
Substitution2: "'medi' Medial Forms in Arabic lookup 11 subtable" uniFEE0
Substitution2: "'init' Initial Forms in Arabic lookup 13 subtable" uniFEDF
EndChar

StartChar: uni0645
Encoding: 1605 1605 40
GlifName: uni0645
Width: 1056
VWidth: 3838
GlyphClass: 2
Flags: HW
AnchorPoint: "Anchor-10" 583.659 1033.03 basechar 0
AnchorPoint: "Anchor-7" 215.123 -858.52 basechar 0
LayerCount: 2
Fore
SplineSet
409 362 m 1
 551 361 692 346 832 317 c 1
 779 429 692 528 569 528 c 0
 486 528 426 408 409 362 c 1
851 40 m 4
 827 20 804 13 770 13 c 0
 755 13 739 14 721 17 c 0
 592 35 456 52 389 52 c 0
 330 52 290 46 258 36 c 1
 286 -377 l 2
 293 -483 254 -580 177 -697 c 0
 148 -741 129 -762 119 -762 c 0
 108 -762 105 -727 104 -673 c 2
 94 -148 l 2
 94 -138 94 -129 94 -120 c 0
 94 127 159 286 290 358 c 1
 342 643 440 786 587 786 c 0
 780 786 969 532 969 294 c 0
 969 166 915 92 851 40 c 4
EndSplineSet
Substitution2: "'init' Initial Forms in Arabic lookup 13 subtable" uniFEE3
Substitution2: "'medi' Medial Forms in Arabic lookup 11 subtable" uniFEE4
Substitution2: "'fina' Terminal Forms in Arabic lookup 9 subtable" uniFEE2
EndChar

StartChar: uni0647
Encoding: 1607 1607 42
GlifName: uni0647
Width: 816
VWidth: 3801
GlyphClass: 2
Flags: HW
AnchorPoint: "Anchor-10" 340.29 1145.38 basechar 0
AnchorPoint: "Anchor-7" 385.186 -212.531 basechar 0
LayerCount: 2
Fore
SplineSet
323 618 m 1
 240 531 209 457 209 417 c 0
 209 356.495738848 280.087890625 335 397 335 c 0
 481.4453125 335 607 356.112304688 607 424 c 0
 607 475 489 556 323 618 c 1
397 5 m 0
 167 5 83 117 83 350 c 0
 83 586.510742188 276.4765625 912 357 912 c 0
 436.819335938 912 734 747.296730084 734 443 c 0
 734 151 620 5 397 5 c 0
EndSplineSet
Substitution2: "'fina' Terminal Forms in Arabic lookup 9 subtable" uniFEEA
Substitution2: "'medi' Medial Forms in Arabic lookup 11 subtable" uniFEEC
Substitution2: "'init' Initial Forms in Arabic lookup 13 subtable" uniFEEB
EndChar

StartChar: uni0648
Encoding: 1608 1608 43
GlifName: uni0648
Width: 807
VWidth: 3836
GlyphClass: 2
Flags: HW
AnchorPoint: "Anchor-7" 341.096 -713.978 basechar 0
AnchorPoint: "Anchor-10" 414.667 1030.67 basechar 0
LayerCount: 2
Fore
SplineSet
468.341796875 -23.552734375 m 0
 266.259765625 -23.552734375 144.4921875 26.31640625 144.4921875 211.0625 c 0
 144.4921875 413.071289062 236.249023438 716.142578125 428.529296875 716.142578125 c 4
 645.885742188 716.142578125 733.98046875 423.983398438 734.108398438 164.392578125 c 0
 733.956054688 -102.76953125 654.108398438 -316.903320312 530.25390625 -460.431640625 c 0
 468.071289062 -531.692382812 421.859375 -551.260742188 293.072265625 -551.260742188 c 0
 225.024414062 -551.260742188 -46.93359375 -525.6953125 -46.93359375 -470.483398438 c 0
 -46.93359375 -454.928710938 -30.326171875 -450.508789062 1.791015625 -440.004882812 c 0
 262.596679688 -354.66796875 451.25 -213.287109375 567.750976562 -15.8603515625 c 1
 533.9921875 -20.98828125 500.856445312 -23.552734375 468.341796875 -23.552734375 c 0
269.681640625 343.6328125 m 0
 269.681640625 302.131835938 326.639648438 295.595703125 419.3828125 295.595703125 c 0
 463.875 295.595703125 518.359375 298.423828125 582.8359375 304.08203125 c 1
 540.782226562 413.786132812 483.53125 467.634765625 402.419921875 467.634765625 c 0
 334.551757812 467.634765625 269.681640625 397.038085938 269.681640625 343.6328125 c 0
EndSplineSet
Substitution2: "'fina' Terminal Forms in Arabic lookup 9 subtable" uniFEEE
EndChar

StartChar: uni0649
Encoding: 1609 1609 44
GlifName: uni0649
Width: 1553
VWidth: 3808
GlyphClass: 2
Flags: HW
AnchorPoint: "Anchor-7" 710.003 -784.57 basechar 0
AnchorPoint: "Anchor-10" 659.458 869.11 basechar 0
LayerCount: 2
Fore
SplineSet
692 -286 m 0
 1071 -286 1267.38183594 -135.419921875 1269 -100 c 0
 1269.59277344 -87.0322265625 1250 -79 1213 -70 c 2
 883 8 l 2
 813 24 778 73 778 156 c 0
 778 480.729492188 1079.80078125 771 1345 771 c 0
 1402 771 1434 766 1495 747 c 5
 1443 458 l 5
 1396 464 l 2
 1371.08007812 466.71875 1350 468 1321 468 c 0
 1133 468 972 386 940 278 c 1
 1278 192 l 2
 1371 169 1417 112 1417 20 c 0
 1417 -406.583984375 1105.37304688 -584 671 -584 c 0
 301 -584 91 -432 91 -109 c 0
 91 21 128 158 202 302 c 1
 292 264 l 1
 258 169 241 81 241 -2 c 0
 241 -191 384 -286 692 -286 c 0
EndSplineSet
Substitution2: "'fina' Terminal Forms in Arabic lookup 9 subtable" uniFEF0
Substitution2: "'medi' Medial Forms in Arabic lookup 11 subtable" uniFBE9
Substitution2: "'init' Initial Forms in Arabic lookup 13 subtable" uniFBE8
EndChar

StartChar: uni064B
Encoding: 1611 1611 46
GlifName: uni064B_
Width: 10
VWidth: 2316
GlyphClass: 4
Flags: HW
AnchorPoint: "Anchor-10" 583.551 1123.65 mark 0
AnchorPoint: "Anchor-9" 583.551 1123.65 mark 0
AnchorPoint: "Anchor-1" 553.285 1596.25 basemark 0
AnchorPoint: "Anchor-1" 583.551 1123.65 mark 0
LayerCount: 2
Fore
SplineSet
322 1076 m 1
 322 1180 l 1
 322 1183.35768781 l 1
 325.108024057 1184.62822072 l 1
 780.108024057 1370.62822072 l 1
 787 1373.4455999 l 1
 787 1366 l 1
 787 1263 l 1
 787 1259.64913344 l 1
 783.900681343 1258.37534753 l 1
 328.900681343 1071.37534753 l 1
 322 1068.53924333 l 1
 322 1076 l 1
322 1288 m 1
 322 1392 l 1
 322 1395.35768781 l 1
 325.108024057 1396.62822072 l 1
 780.108024057 1582.62822072 l 1
 787 1585.4455999 l 1
 787 1578 l 1
 787 1475 l 1
 787 1471.64913344 l 1
 783.900681343 1470.37534753 l 1
 328.900681343 1283.37534753 l 1
 322 1280.53924333 l 1
 322 1288 l 1
EndSplineSet
EndChar

StartChar: uni064C
Encoding: 1612 1612 47
GlifName: uni064C_
Width: 0
VWidth: 2316
GlyphClass: 4
Flags: HW
AnchorPoint: "Anchor-10" 680.906 1278.67 mark 0
AnchorPoint: "Anchor-9" 680.906 1278.67 mark 0
AnchorPoint: "Anchor-1" 637.739 1852.46 basemark 0
AnchorPoint: "Anchor-1" 680.906 1278.67 mark 0
LayerCount: 2
Fore
SplineSet
484 1629 m 0
 484 1729.05477917 555.037558591 1796 652 1796 c 0
 749.502659876 1796 819 1729.8986434 819 1628 c 0
 819 1590.00544811 809.654142839 1549.63055867 794.039458443 1510.90744928 c 1
 809.500362015 1508.58747262 820.343431184 1508 830 1508 c 2
 835 1508 l 1
 835 1503 l 1
 835 1427 l 1
 835 1421.7437539 l 1
 829.750311915 1422.00623831 l 2
 810.501022189 1422.96870279 785.678344361 1425.16288331 756.703060078 1430.41671217 c 1
 692.392258137 1310.20203977 598.362497966 1245.9921875 471.8671875 1245.9921875 c 0
 335.669700618 1245.9921875 266.002121016 1342.84896576 263.000643449 1529.9197873 c 2
 262.932292721 1534.17983141 l 1
 267.127518383 1534.92328913 l 1
 346.127518383 1548.92328913 l 1
 351.877288374 1549.94223571 l 1
 351.998915284 1544.10414407 l 2
 354.994350337 1400.32326153 396.408814955 1334 473 1334 c 0
 543.23513252 1334 607.401106222 1374.97785055 664.715982356 1445.63045349 c 1
 561.291865493 1482.82669356 484 1532.48377656 484 1629 c 0
706.093184249 1528.95257809 m 1
 719.74741739 1561.61527371 731 1596.97561208 731 1627 c 0
 731 1672.4518915 696.767194245 1706 656 1706 c 0
 608.243151317 1706 574 1674.37111037 574 1625 c 0
 574 1573.73614198 641.805531364 1546.37134787 706.093184249 1528.95257809 c 1
EndSplineSet
EndChar

StartChar: uni064D
Encoding: 1613 1613 48
GlifName: uni064D_
Width: 3
VWidth: 2316
GlyphClass: 4
Flags: HW
AnchorPoint: "Anchor-7" 545.278 32.7109 mark 0
AnchorPoint: "Anchor-6" 545.278 32.7109 mark 0
AnchorPoint: "Anchor-0" 595.022 -407.025 basemark 0
AnchorPoint: "Anchor-0" 545.278 32.7109 mark 0
LayerCount: 2
Fore
SplineSet
330 -446 m 1
 330 -342 l 1
 330 -338.639524341 l 1
 333.111580725 -337.37032694 l 1
 789.111580725 -151.37032694 l 1
 796 -148.560576973 l 1
 796 -156 l 1
 796 -260 l 1
 796 -263.360475659 l 1
 792.888419275 -264.62967306 l 1
 336.888419275 -450.62967306 l 1
 330 -453.439423027 l 1
 330 -446 l 1
330 -234 m 1
 330 -130 l 1
 330 -126.639524341 l 1
 333.111580725 -125.37032694 l 1
 789.111580725 60.6296730601 l 1
 796 63.4394230274 l 1
 796 56 l 1
 796 -48 l 1
 796 -51.3604756589 l 1
 792.888419275 -52.6296730601 l 1
 336.888419275 -238.62967306 l 1
 330 -241.439423027 l 1
 330 -234 l 1
EndSplineSet
EndChar

StartChar: uni064E
Encoding: 1614 1614 49
GlifName: uni064E_
Width: 0
VWidth: 2316
GlyphClass: 4
Flags: HW
AnchorPoint: "Anchor-10" 545.66 1397.63 mark 0
AnchorPoint: "Anchor-9" 545.66 1397.63 mark 0
AnchorPoint: "Anchor-1" 541.396 1651.77 basemark 0
AnchorPoint: "Anchor-1" 545.66 1397.63 mark 0
LayerCount: 2
Fore
SplineSet
291 1349 m 1
 291 1453 l 1
 291 1456.36047566 l 1
 294.111580725 1457.62967306 l 1
 750.111580725 1643.62967306 l 1
 757 1646.43942303 l 1
 757 1639 l 1
 757 1535 l 1
 757 1531.63952434 l 1
 753.888419275 1530.37032694 l 1
 297.888419275 1344.37032694 l 1
 291 1341.56057697 l 1
 291 1349 l 1
EndSplineSet
EndChar

StartChar: uni064F
Encoding: 1615 1615 50
GlifName: uni064F_
Width: 10
VWidth: 2316
GlyphClass: 4
Flags: HW
AnchorPoint: "Anchor-10" 591.295 1359.37 mark 0
AnchorPoint: "Anchor-9" 591.295 1359.37 mark 0
AnchorPoint: "Anchor-1" 542.134 1865.4 basemark 0
AnchorPoint: "Anchor-1" 591.295 1359.37 mark 0
LayerCount: 2
Fore
SplineSet
723 1422 m 2
 695.825908123 1422 670.43102186 1423.92344856 645.254585538 1427.60237407 c 1
 577.165470853 1335.95643559 418.625871916 1312.91706719 256.273977998 1304.00751204 c 2
 251 1303.71808642 l 1
 251 1309 l 1
 251 1387 l 1
 251 1391.56291871 l 1
 255.543894354 1391.97915331 l 2
 381.156357571 1403.48563849 505.90853406 1410.69575324 555.505490994 1451.98321438 c 1
 465.439506258 1471.46160518 375 1532.11602415 375 1626 c 0
 375 1726.48549335 446.259447738 1793 543 1793 c 0
 640.040078137 1793 711 1725.9877249 711 1625 c 0
 711 1587.07224029 702.155983978 1548.08466552 687.024745786 1510.00762978 c 1
 698.717778369 1508.33340963 710.693343945 1507 723 1507 c 2
 728 1507 l 1
 728 1502 l 1
 728 1427 l 1
 728 1422 l 1
 723 1422 l 2
597.093184249 1525.95257809 m 1
 610.74741739 1558.61527371 622 1593.97561208 622 1624 c 0
 622 1669.90534222 588.646496609 1702 547 1702 c 0
 498.751670299 1702 465 1671.64435205 465 1622 c 0
 465 1570.73614198 532.805531364 1543.37134787 597.093184249 1525.95257809 c 1
EndSplineSet
EndChar

StartChar: uni0650
Encoding: 1616 1616 51
GlifName: uni0650
Width: 10
VWidth: 2316
GlyphClass: 4
Flags: HW
AnchorPoint: "Anchor-7" 571.144 -44.8242 mark 0
AnchorPoint: "Anchor-6" 571.144 -44.8242 mark 0
AnchorPoint: "Anchor-0" 619.091 -324.624 basemark 0
AnchorPoint: "Anchor-0" 571.144 -44.8242 mark 0
LayerCount: 2
Fore
SplineSet
338 -346 m 1
 338 -242 l 1
 338 -238.642312191 l 1
 341.108024057 -237.37177928 l 1
 796.108024057 -51.3717792801 l 1
 803 -48.5544001035 l 1
 803 -56 l 1
 803 -159 l 1
 803 -162.350866557 l 1
 799.900681343 -163.624652466 l 1
 344.900681343 -350.624652466 l 1
 338 -353.460756666 l 1
 338 -346 l 1
EndSplineSet
EndChar

StartChar: uni0651
Encoding: 1617 1617 52
GlifName: uni0651
Width: 4
VWidth: 2264
GlyphClass: 4
Flags: HW
AnchorPoint: "Anchor-10" 595 1445 mark 0
AnchorPoint: "Anchor-9" 595 1445 mark 0
AnchorPoint: "Anchor-1" 574 1868 basemark 0
AnchorPoint: "Anchor-1" 595 1445 mark 0
LayerCount: 2
Fore
SplineSet
778.141593546 1689.25695465 m 0
 778.047248342 1732.24432574 775.739915686 1767.71911039 771.278667212 1795.59059407 c 2
 771.017396689 1797.22287193 l 1
 771.780565345 1798.68921667 l 2
 776.768027276 1808.27207691 782.12536034 1815.46711398 788.29393351 1820.06896215 c 0
 804.713246805 1832.31801631 822.396156025 1822.5698661 838.282037805 1800.25843909 c 2
 838.994617104 1799.25763465 l 1
 839.162232104 1798.04055454 l 2
 846.360894304 1745.76988301 849.846911728 1705.11986976 849.722182879 1677.00112086 c 0
 849.619006985 1545.70794457 802.966716411 1478.96744629 708.694332683 1478.89551125 c 0
 653.358537952 1478.96039394 613.433653767 1498.10048158 591.379409341 1533.8568204 c 1
 567.890638455 1449.79337382 514.61100814 1407.11092084 433.066220267 1407.31837503 c 0
 345.013008573 1407.09807702 300.741878959 1465.63179468 300.206094128 1576.98014044 c 0
 300.066744918 1612.0635277 304.318465909 1655.80942997 312.913239076 1708.35111764 c 2
 313.081154236 1709.37761894 l 1
 313.644506886 1710.25199543 l 2
 321.679650722 1722.72329701 329.544361443 1731.2874409 338.023395204 1735.437778 c 0
 355.025091755 1743.75980783 369.468412289 1731.50996881 380.180927155 1708.75677306 c 2
 380.809602051 1707.42147849 l 1
 380.612386232 1705.9588269 l 2
 374.19153115 1658.33854009 370.853437037 1626.94959509 370.595892118 1612.88446986 c 0
 370.859415795 1549.05922639 394.522570085 1520.06192335 441.622934488 1520.16503153 c 0
 501.741613776 1520.06070531 533.728486688 1559.92327739 537.050258185 1646.04731463 c 0
 538.347932485 1674.70996326 538.77032379 1713.62545161 538.312716135 1762.8392524 c 2
 538.297033729 1764.52582997 l 1
 539.306171231 1765.87728524 l 2
 546.676833745 1775.74821032 553.859700872 1782.80470062 561.296446844 1786.81417445 c 0
 578.58019564 1796.1325966 593.873946449 1786.37374704 604.976677338 1765.00979903 c 2
 605.508116708 1763.98719989 l 1
 605.538321461 1762.83514759 l 2
 606.507413304 1725.87260446 607.230687619 1705.60053829 607.428670411 1704.11781268 c 2
 607.47408004 1703.77773252 l 1
 607.472610379 1703.43463721 l 2
 607.165689657 1631.78337703 638.262076746 1597.79507407 702.579500684 1597.43059242 c 0
 753.116507902 1597.16005071 778.049231386 1626.03648398 778.141593546 1689.25695465 c 0
EndSplineSet
EndChar

StartChar: uni0652
Encoding: 1618 1618 53
GlifName: uni0652
Width: 7
VWidth: 2316
GlyphClass: 4
Flags: HW
AnchorPoint: "Anchor-10" 609.219 1271.43 mark 0
AnchorPoint: "Anchor-9" 609.219 1271.43 mark 0
AnchorPoint: "Anchor-1" 589.537 1682.66 basemark 0
AnchorPoint: "Anchor-1" 609.219 1271.43 mark 0
LayerCount: 2
Fore
SplineSet
416 1462 m 0
 416 1560.75134991 495.248449493 1640 594 1640 c 0
 692.723908097 1640 773 1560.79035253 773 1462 c 0
 773 1363.23730435 692.762874314 1283 594 1283 c 0
 495.209894988 1283 416 1363.27594762 416 1462 c 0
597 1372 m 0
 646.171480574 1372 686 1412.70703386 686 1462 c 0
 686 1511.1917198 646.314614109 1550 597 1550 c 0
 548.327790467 1550 507.982421875 1510.13452448 507.982421875 1461.77734375 c 0
 507.982421875 1410.77007899 546.148140902 1372 597 1372 c 0
EndSplineSet
EndChar

StartChar: uni0653
Encoding: 1619 1619 54
GlifName: uni0653
Width: -3
VWidth: 2801
GlyphClass: 4
Flags: HW
AnchorPoint: "Anchor-10" 493.848 1585.79 mark 0
AnchorPoint: "Anchor-9" 493.848 1585.79 mark 0
AnchorPoint: "Anchor-1" 463.075 2038.87 basemark 0
AnchorPoint: "Anchor-1" 493.848 1585.79 mark 0
LayerCount: 2
Fore
SplineSet
546.237304688 1664.54492188 m 4
 480.767578125 1664.54492188 442.857162509 1677.52742969 366.031027229 1677.52742969 c 0
 285.700443669 1677.52742969 243.203307618 1639.02570114 182.069335938 1584.58398438 c 1
 158.346679688 1601.52441406 136.024414062 1621.37597656 120.26171875 1639.70898438 c 1
 161.605227681 1755.92992536 215.2099066 1869.14648438 338.594726562 1869.14648438 c 0
 441.247070312 1869.14648438 507.400390625 1837.88671875 610.423828125 1837.88671875 c 4
 665.495117188 1837.88671875 738.043945312 1852.98730469 783.427734375 1866.578125 c 0
 861.859812396 1890.06509046 880.511519019 1870.36361929 832.819335938 1808.23144531 c 0
 765.115234375 1720.02832031 699.62890625 1664.54492188 546.237304688 1664.54492188 c 4
EndSplineSet
EndChar

StartChar: uni0657
Encoding: 1623 1623 57
GlifName: uni0657
Width: 4
VWidth: 2316
GlyphClass: 4
Flags: HW
AnchorPoint: "Anchor-10" 513.285 1400.55 mark 0
AnchorPoint: "Anchor-9" 513.285 1400.55 mark 0
AnchorPoint: "Anchor-1" 537.285 2069.85 basemark 0
AnchorPoint: "Anchor-1" 513.285 1400.55 mark 0
LayerCount: 2
Fore
SplineSet
265 1805 m 1
 305 1804 348 1801 395 1796 c 1
 396 1797 l 2
 496 1939 625 2018 785 2033 c 1
 785 1955 l 1
 662 1935 562 1876 486 1778 c 1
 573.073233818 1752.51515108 658 1697.36135892 658 1599 c 0
 658 1507.71378279 593.059658194 1438 501 1438 c 0
 408.64267729 1438 332 1502.56128158 332 1603 c 0
 332 1632 339 1672 355 1722 c 1
 328 1724 299 1726 265 1726 c 1
 265 1805 l 1
501 1516 m 0
 549.036312445 1516 577 1548.90280457 577 1597 c 0
 577 1658.28540997 503.060368911 1693.27134074 437 1709 c 1
 419 1666 410 1632 410 1605 c 0
 410 1552.84187884 451.285616311 1516 501 1516 c 0
EndSplineSet
EndChar

StartChar: uni065A
Encoding: 1626 1626 58
GlifName: uni065A_
Width: 1135
VWidth: 2316
GlyphClass: 4
Flags: HW
AnchorPoint: "Anchor-10" 573.285 1350.55 mark 0
AnchorPoint: "Anchor-9" 573.285 1350.55 mark 0
AnchorPoint: "Anchor-1" 571.012 1862.38 basemark 0
AnchorPoint: "Anchor-1" 573.285 1350.55 mark 0
LayerCount: 2
Fore
SplineSet
522 1444 m 1
 309 1768 l 1
 433 1768 l 1
 573 1528 l 1
 714 1768 l 1
 838 1768 l 1
 624 1444 l 1
 522 1444 l 1
EndSplineSet
EndChar

StartChar: uni0660
Encoding: 1632 1632 59
GlifName: afii57392
Width: 895
VWidth: 3373
GlyphClass: 2
Flags: HW
LayerCount: 2
Fore
SplineSet
449.591796875 810.403320312 m 5
 711.2890625 548.706054688 l 5
 444.19140625 281.607421875 l 5
 182.494140625 543.305664062 l 5
 449.591796875 810.403320312 l 5
EndSplineSet
EndChar

StartChar: uni0661
Encoding: 1633 1633 60
GlifName: afii57393
Width: 742
VWidth: 3363
GlyphClass: 2
Flags: HW
LayerCount: 2
Fore
SplineSet
327 1439 m 4
 473 1111 546 742 546 330 c 4
 546 133 501 19 406 -6 c 5
 405 380 322 792 122 1278 c 5
 260 1460 l 6
 291 1499 309 1480 327 1439 c 4
EndSplineSet
EndChar

StartChar: uni0662
Encoding: 1634 1634 61
GlifName: afii57394
Width: 1089
VWidth: 3363
GlyphClass: 2
Flags: HW
LayerCount: 2
Fore
SplineSet
497 887 m 1
 528 721 545 531 545 321 c 0
 545 126 499 16 406 -6 c 1
 406 18 l 2
 406 388 317 808 122 1278 c 1
 260 1459 l 2
 292 1502 310 1480 332 1431 c 0
 397 1287 489 1219 614 1219 c 0
 780 1219 869 1278 881 1397 c 2
 888 1468 l 1
 990 1453 l 1
 987 1380 l 2
 974 1048 842 882 592 882 c 0
 563 882 532 884 497 887 c 1
EndSplineSet
EndChar

StartChar: uni0663
Encoding: 1635 1635 62
GlifName: afii57395
Width: 1275
VWidth: 3363
GlyphClass: 2
Flags: HW
LayerCount: 2
Fore
SplineSet
122 1278 m 5
 260 1459 l 2
 287 1494 312 1487 324 1450 c 0
 376 1295 446 1219 536 1219 c 0
 645 1219 702 1259 707 1340 c 2
 713 1423 l 1
 826 1420 l 1
 832 1339 l 2
 838 1258 908 1216 977 1216 c 0
 1068 1216 1091 1292 1091 1409 c 0
 1091 1422 1090 1435 1090 1449 c 1
 1204 1441 l 1
 1205 1405 l 2
 1205 1389 1205 1374 1205 1359 c 0
 1205 1050 1118 894 942 894 c 0
 859 894 793 927 745 994 c 1
 694 923 611 887 497 887 c 1
 528 721 545 531 545 321 c 0
 545 126 499 16 406 -6 c 1
 406 387 322 800 122 1278 c 5
EndSplineSet
EndChar

StartChar: uni0664
Encoding: 1636 1636 63
GlifName: afii57396
Width: 978
VWidth: 3370
GlyphClass: 2
Flags: HW
LayerCount: 2
Fore
SplineSet
137 237 m 0
 137 371 240 502 432 642 c 1
 385 681 337 718 286 754 c 0
 178 831 124 903 124 970 c 0
 124 1074 209 1173 380 1265 c 0
 446 1301 529 1338 627 1379 c 0
 649 1388 666 1393 680 1393 c 0
 709 1393 720 1372 720 1344 c 0
 720 1339 720 1333 719 1327 c 0
 711 1273 695 1184 671 1059 c 1
 533 1052 447 1043 412 1031 c 0
 397 1026 390 1022 389 1019 c 0
 387 1007 399 992 425 974 c 0
 579 860 664 778 682 727 c 0
 684 721 686 714 686 707 c 0
 686 659 632 594 523 511 c 0
 471 471 423 428 379 383 c 0
 334 336 312 314 312 304 c 0
 312 285 350 280 380 280 c 0
 454 280 605 300 832 338 c 2
 854 342 l 1
 849 88 l 2
 848 48 827 25 795 23 c 0
 735 17 678 15 621 15 c 0
 594 15 568 15 542 16 c 0
 272 29 137 104 137 237 c 0
EndSplineSet
EndChar

StartChar: uni0665
Encoding: 1637 1637 64
GlifName: afii57397
Width: 1062
VWidth: 3710
GlyphClass: 2
Flags: HW
LayerCount: 2
Fore
SplineSet
508 939 m 1
 331 737 242 590 242 498 c 0
 242 379.745062775 357.506514673 333 509 333 c 0
 650.889901728 333 812 384.384487998 812 495 c 0
 812 604 707 753 508 939 c 1
507 13 m 0
 232 13 97 177 97 462 c 0
 97 463 l 0
 97 463 l 0
 97 617 188 813 371 1050 c 1
 291 1111 l 1
 442 1423 l 1
 459 1407 l 2
 797 1091 966 786 966 491 c 0
 966 181 814 13 507 13 c 0
EndSplineSet
EndChar

StartChar: uni0666
Encoding: 1638 1638 65
GlifName: afii57398
Width: 1380
VWidth: 3373
GlyphClass: 2
Flags: HW
LayerCount: 2
Fore
SplineSet
981 1388 m 1
 995 743 1066 352 1195 216 c 2
 1205 206 l 1
 1052 -14 l 1
 1035 3 l 2
 966 73 912 185 872 340 c 128
 832 495 809 761 802 1138 c 1
 679 1051 557 1018 433 1018 c 4
 342 1018 250 1032 158 1079 c 0
 118 1100 97 1275 97 1363 c 0
 97 1420 101 1453 149 1435 c 0
 278 1386 435 1362 620 1362 c 0
 730 1362 851 1371 981 1388 c 1
EndSplineSet
EndChar

StartChar: uni0667
Encoding: 1639 1639 66
GlifName: afii57399
Width: 1182
VWidth: 3374
GlyphClass: 2
Flags: HW
LayerCount: 2
Fore
SplineSet
63 1222 m 1
 202 1469 l 1
 225 1493 244 1479 258 1458 c 0
 387 1233 497 917 592 510 c 1
 685 889 804 1207 948 1463 c 0
 968 1498 991 1495 1003 1467 c 2
 1109 1223 l 1
 845 759 687 351 635 2 c 1
 538 2 l 1
 485 362 327 769 63 1222 c 1
EndSplineSet
EndChar

StartChar: uni0668
Encoding: 1640 1640 67
GlifName: afii57400
Width: 1182
VWidth: 3374
GlyphClass: 2
Flags: HW
LayerCount: 2
Fore
SplineSet
63 259 m 1
 327 713 485 1119 538 1479 c 1
 645 1479 l 1
 697 1130 855 723 1119 258 c 1
 1003 14 l 2
 990.0338155 -15.1739151254 965.259600663 -13.6426012162 948 18 c 0
 801 287 682 605 592 971 c 1
 500 572 389 257 258 23 c 0
 250 8 240 0 229 -0 c 0
 219 0 209 3 202 11 c 1
 63 259 l 1
EndSplineSet
EndChar

StartChar: uni0669
Encoding: 1641 1641 68
GlifName: afii57401
Width: 1057
VWidth: 3374
GlyphClass: 2
Flags: HW
LayerCount: 2
Fore
SplineSet
413 700 m 0
 224.836914062 700 122.993164062 801.1875 122.993164062 985.53515625 c 0
 122.993164062 1218.93066406 271.122070312 1480 445 1480 c 0
 700.320822698 1480 768.981228949 1210.30033681 787 922 c 0
 813 513 863 275 936 206 c 1
 947 195 l 1
 824 -13 l 1
 806 2 l 2
 761 40 724 97 694 171 c 0
 650 278 623 453 614 725 c 1
 539 708 472 700 413 700 c 0
261 1054 m 0
 261 1004 355 988 417 988 c 0
 466 988 523 993 589 1003 c 1
 573 1124 538 1204 414 1204 c 0
 321 1204 261 1112 261 1054 c 0
EndSplineSet
EndChar

StartChar: uni066A
Encoding: 1642 1642 69
GlifName: afii57381
Width: 970
VWidth: 3613
GlyphClass: 2
Flags: HW
LayerCount: 2
Fore
SplineSet
123 1077 m 0
 123 1152 184 1213 259 1213 c 0
 334 1213 396 1152 396 1077 c 0
 396 1002 334 940 259 940 c 0
 184 940 123 1002 123 1077 c 0
584 260 m 0
 584 335 645 396 720 396 c 0
 795 396 857 335 857 260 c 0
 857 185 795 123 720 123 c 0
 645 123 584 185 584 260 c 0
717.5078125 1370.66699219 m 1
 893.77734375 1370.53613281 l 1
 260.575195312 -18 l 1
 73.81640625 -18 l 1
 717.5078125 1370.66699219 l 1
EndSplineSet
EndChar

StartChar: uni066B
Encoding: 1643 1643 70
GlifName: uni066B_
Width: 873
VWidth: 3616
GlyphClass: 2
Flags: HW
LayerCount: 2
Fore
SplineSet
619.6171875 603.107421875 m 5
 807.514648438 602.971679688 l 5
 236.416992188 -429.223632812 l 5
 46.216796875 -429.223632812 l 5
 619.6171875 603.107421875 l 5
EndSplineSet
PairPos2: "'kern' Horizontal Kerning lookup 0 subtable 6" uni06F4 dx=-110 dy=0 dh=-110 dv=0 dx=0 dy=0 dh=0 dv=0
PairPos2: "'kern' Horizontal Kerning lookup 0 subtable 6" uni06F3 dx=-130 dy=0 dh=-130 dv=0 dx=0 dy=0 dh=0 dv=0
PairPos2: "'kern' Horizontal Kerning lookup 0 subtable 6" uni06F2 dx=-130 dy=0 dh=-130 dv=0 dx=0 dy=0 dh=0 dv=0
EndChar

StartChar: uni066C
Encoding: 1644 1644 71
GlifName: uni066C_
Width: 530
VWidth: 3440
GlyphClass: 2
Flags: HW
LayerCount: 2
Fore
SplineSet
260 253 m 0
 360 253 406 193 406 84 c 0
 406 -35 358 -207 177 -321 c 4
 138 -345 66 -323 108 -290 c 4
 187 -232 247 -125 248 -45 c 1
 141 4 120 31 120 100 c 0
 120 191 167 253 260 253 c 0
EndSplineSet
PairPos2: "'kern' Horizontal Kerning lookup 0 subtable 6" uni06F4 dx=-112 dy=0 dh=-112 dv=0 dx=0 dy=0 dh=0 dv=0
PairPos2: "'kern' Horizontal Kerning lookup 0 subtable 6" uni06F3 dx=-128 dy=0 dh=-128 dv=0 dx=0 dy=0 dh=0 dv=0
PairPos2: "'kern' Horizontal Kerning lookup 0 subtable 6" uni06F2 dx=-112 dy=0 dh=-112 dv=0 dx=0 dy=0 dh=0 dv=0
EndChar

StartChar: uni066E
Encoding: 1646 1646 72
GlifName: uni066E_
Width: 1845
VWidth: 3808
GlyphClass: 2
Flags: HW
AnchorPoint: "Anchor-10" 945.449 1132.82 basechar 0
AnchorPoint: "Anchor-7" 872.857 -254.311 basechar 0
LayerCount: 2
Fore
SplineSet
832 -57 m 0
 351.8671875 -57 96.98828125 55.1259765625 96.98828125 396.009765625 c 0
 96.98828125 520.932617188 136.177734375 638.754882812 213 755 c 1
 304 718 l 1
 267.67578125 628.19921875 249.99609375 560.041015625 249.99609375 508.694335938 c 0
 249.99609375 332.71484375 449.002929688 275 855 275 c 0
 1093 275 1594 290 1594 388 c 0
 1594 431 1523 544 1469 613 c 1
 1593 832 l 2
 1619.97070312 880.913085938 1630 882 1658 838 c 0
 1735 715 1761 597 1761 450 c 0
 1761 -9 1269 -57 832 -57 c 0
EndSplineSet
Substitution2: "'fina' Terminal Forms in Arabic lookup 9 subtable" uni066E.fina
EndChar

StartChar: uni066F
Encoding: 1647 1647 73
GlifName: uni066F_
Width: 1383
VWidth: 3836
GlyphClass: 2
Flags: HW
AnchorPoint: "Anchor-10" 585.921 1202.72 basechar 0
AnchorPoint: "Anchor-7" 606.921 -670.829 basechar 0
LayerCount: 2
Fore
SplineSet
1298 207 m 4
 1298 -228 1064 -469 653 -469 c 4
 314 -469 97 -346 97 -31 c 4
 97 87 133 227 204 391 c 5
 294 353 l 5
 259 265 239 206 239 111 c 4
 239 -85 404 -157 659 -157 c 4
 924 -157 1089 -103 1164 3 c 5
 1172.2578125 49.2890625 1172.93945312 82.896484375 1167 139 c 5
 1116 124 1037 114 948 114 c 4
 783 114 705 189 705 345 c 4
 705 559 802 784 983 784 c 4
 1221 784 1298 457 1298 207 c 4
836 404 m 4
 836 368 925 364 967 364 c 4
 1022 364 1072 373 1146 391 c 5
 1090 487 1040 535 968 535 c 4
 900 535 836 477 836 404 c 4
EndSplineSet
Substitution2: "'fina' Terminal Forms in Arabic lookup 9 subtable" uni066F.fina
EndChar

StartChar: uni0670
Encoding: 1648 1648 74
GlifName: uni0670
Width: 0
VWidth: 3021
GlyphClass: 4
Flags: HW
AnchorPoint: "Anchor-10" 768.713 1776.23 mark 0
AnchorPoint: "Anchor-9" 768.713 1776.23 mark 0
AnchorPoint: "Anchor-1" 756.758 2355.27 basemark 0
AnchorPoint: "Anchor-1" 768.713 1776.23 mark 0
LayerCount: 2
Fore
SplineSet
746.943948185 1837.53849319 m 1
 701.848245059 2198.00138381 l 1
 701.461773739 2201.09055993 l 1
 704.063441878 2202.80044064 l 1
 790.253871566 2259.44692502 l 1
 790.356809172 2259.51457816 l 1
 790.462953264 2259.57708041 l 2
 795.770136015 2262.7021797 800.605236853 2264.63960028 805.315660353 2264.82902171 c 0
 817.588362935 2265.32254695 821.948242188 2253.65429913 821.948242188 2240 c 2
 821.948242188 1859.79492188 l 1
 821.948242188 1856.1887464 l 1
 818.52641029 1855.05051618 l 1
 753.48344154 1833.41477399 l 1
 747.700500934 1831.49115005 l 1
 746.943948185 1837.53849319 l 1
EndSplineSet
EndChar

StartChar: uni0674
Encoding: 1652 1652 75
GlifName: uni0674
Width: 794
VWidth: 2798
GlyphClass: 2
Flags: HW
LayerCount: 2
Fore
SplineSet
214 2123 m 0
 214 2257.72058132 303.139198484 2375 412 2375 c 0
 492.245471947 2375 550.06815982 2330.20058226 586.59572515 2244.96959649 c 2
 587.597857884 2242.63128678 l 1
 586.29767944 2240.44462304 l 1
 564.29767944 2203.44462304 l 1
 562.011826481 2199.60023397 l 1
 557.937462233 2201.4452291 l 2
 505.31828016 2225.27278325 460.908279364 2237 426 2237 c 0
 371.923541705 2237 292 2206.50876579 292 2154 c 0
 292 2096.29428779 368.804232477 2048 450 2048 c 0
 481.92132715 2048 501.954746401 2056.57085161 549.241546895 2074.6806901 c 0
 568.525698869 2081.78537767 583.754157305 2086 595 2086 c 0
 608.64539812 2086 618 2079.05781581 618 2066 c 0
 618 2058.91897143 615.686772839 2050.19320579 610.486347677 2039.79235547 c 2
 564.500196966 1944.82095726 l 1
 563.398636795 1942.54599604 l 1
 560.913561713 1942.08416792 l 2
 448.788280177 1921.24672622 346.332826828 1872.57579626 212.442025297 1797.6369148 c 2
 203.599132663 1792.6875346 l 1
 205.051626824 1802.71666094 l 1
 226.051626824 1947.71666094 l 1
 226.433078065 1950.35049094 l 1
 228.830921906 1951.50500835 l 2
 252.860137988 1963.07463091 278.572195548 1975.50318176 302.806540712 1987.86354149 c 1
 243.507573441 2018.30677185 214 2063.13425827 214 2123 c 0
EndSplineSet
EndChar

StartChar: uni06A1
Encoding: 1697 1697 79
GlifName: uni06A_1
Width: 1748
VWidth: 3836
GlyphClass: 2
Flags: HW
AnchorPoint: "Anchor-10" 762.887 1489.57 basechar 0
AnchorPoint: "Anchor-7" 545.732 -261.4 basechar 0
LayerCount: 2
Fore
SplineSet
855 275 m 4
 1342.84013829 275 1509.64785379 282.152201972 1517 470 c 5
 1466 455 1397 445 1308 445 c 0
 1143 445 1065 520 1065 676 c 0
 1065 889.801757812 1161.63867188 1115.00878906 1343.10351562 1115.00878906 c 0
 1581.13183594 1115.00878906 1658 787.622070312 1658 538 c 0
 1658 18.8347691276 1497.09462247 -57 832 -57 c 0
 351.8671875 -57 96.98828125 55.1259765625 96.98828125 396.009765625 c 0
 96.98828125 520.932617188 136.177734375 638.754882812 213 755 c 1
 304 718 l 1
 267.67578125 628.19921875 249.99609375 560.041015625 249.99609375 508.694335938 c 0
 249.99609375 332.71484375 449.002929688 275 855 275 c 4
1196 735 m 0
 1196 699 1285 695 1327 695 c 0
 1382 695 1432 704 1506 722 c 1
 1450 818 1400 866 1328 866 c 0
 1259.88574219 866 1196 808.048828125 1196 735 c 0
EndSplineSet
Substitution2: "'init' Initial Forms in Arabic lookup 13 subtable" uni06A1.init
Substitution2: "'medi' Medial Forms in Arabic lookup 11 subtable" uni06A1.medi
Substitution2: "'fina' Terminal Forms in Arabic lookup 9 subtable" uni06A1.fina
EndChar

StartChar: uni06A9
Encoding: 1705 1705 80
GlifName: uni06A_9
Width: 1985
VWidth: 3808
GlyphClass: 2
Flags: HW
AnchorPoint: "Anchor-7" 876.157 -267.146 basechar 0
AnchorPoint: "Anchor-10" 1195.31 1454.92 basechar 0
LayerCount: 2
Fore
SplineSet
1308 1078 m 1
 1616.78515625 819.485351562 1751.09375 630.872070312 1751.09375 437.748046875 c 0
 1751.09375 54.9384765625 1289.68257628 -57 832 -57 c 4
 351.8671875 -57 96.98828125 55.1259765625 96.98828125 396.009765625 c 4
 96.98828125 520.932617188 136.177734375 638.754882812 213 755 c 5
 304 718 l 5
 267.67578125 628.19921875 249.99609375 560.041015625 249.99609375 508.694335938 c 4
 249.99609375 332.71484375 449.002929688 275 855 275 c 4
 1130.52998377 275 1606.78417969 288.626953125 1606.78417969 444.977539062 c 0
 1606.78417969 537.083007812 1284.484375 795.416992188 1073 940 c 0
 1054 954 1044 978 1044 997 c 0
 1044 1001 1045 1006 1046 1010 c 2
 1104 1204 l 2
 1110 1225 1121 1238 1133 1243 c 2
 1899 1568 l 2
 1925 1579 1930 1568 1925 1539 c 2
 1888 1319 l 1
 1308 1078 l 1
EndSplineSet
Substitution2: "'init' Initial Forms in Arabic lookup 13 subtable" uniFB90
Substitution2: "'medi' Medial Forms in Arabic lookup 11 subtable" uniFB91
Substitution2: "'fina' Terminal Forms in Arabic lookup 9 subtable" uniFB8F
EndChar

StartChar: uni06AF
Encoding: 1711 1711 81
GlifName: uni06A_F_
Width: 2005
VWidth: 3808
GlyphClass: 2
Flags: HW
AnchorPoint: "Anchor-10" 1303.36 1591.03 basechar 0
AnchorPoint: "Anchor-7" 876.157 -267.146 basechar 0
LayerCount: 2
Fore
SplineSet
1071 870 m 0
 1052 884 1042 908 1042 927 c 0
 1042 931 1043 936 1044 940 c 2
 1102 1134 l 2
 1108 1155 1119 1168 1131 1173 c 2
 1897 1498 l 2
 1923 1509 1928 1498 1923 1469 c 2
 1886 1249 l 1
 1306 1008 l 1
 1524 869.099975586 1751.09375 650.872070312 1751.09375 437.748046875 c 0
 1751.09375 54.9384765625 1289.68257628 -57 832 -57 c 0
 351.8671875 -57 96.98828125 55.1259765625 96.98828125 396.009765625 c 0
 96.98828125 520.932617188 136.177734375 638.754882812 213 755 c 1
 304 718 l 1
 267.67578125 628.19921875 249.99609375 560.041015625 249.99609375 508.694335938 c 0
 249.99609375 332.71484375 449.002929688 275 855 275 c 0
 1130.52998377 275 1606.78417969 288.626953125 1606.78417969 444.977539062 c 0
 1606.78417969 537.083007812 1282.484375 725.416992188 1071 870 c 0
EndSplineSet
Refer: 272 -1 N 1.1342 0 0 1.1342 1045 -777 2
Substitution2: "'fina' Terminal Forms in Arabic lookup 9 subtable" uniFB93
Substitution2: "'medi' Medial Forms in Arabic lookup 11 subtable" uniFB95
Substitution2: "'init' Initial Forms in Arabic lookup 13 subtable" uniFB94
EndChar

StartChar: uni06BA
Encoding: 1722 1722 82
GlifName: afii57514
Width: 1380
VWidth: 3808
GlyphClass: 2
Flags: HW
LayerCount: 2
Fore
SplineSet
645.7734375 -490.009765625 m 4
 303.309570312 -490.009765625 93 -361.565429688 93 -60 c 4
 93 64 129 208 200 371 c 5
 290 333 l 5
 253 241 235 160 235 91 c 4
 235 -104.5859375 410.442382812 -179 642 -179 c 4
 871 -179 1066 -114 1165 7 c 5
 1110 160 1044 309 967 434 c 5
 1085.10742188 640.049804688 l 6
 1101.09570312 667.943359375 1114.33300781 682 1123 682 c 4
 1129.66699219 682 1139 672 1151 652 c 4
 1250.92773438 485.233398438 1291.11035156 334.70703125 1291.11035156 141.296875 c 4
 1291.11035156 -279.848632812 1027.48339844 -490.009765625 645.7734375 -490.009765625 c 4
EndSplineSet
Substitution2: "'fina' Terminal Forms in Arabic lookup 9 subtable" uniFB9F
EndChar

StartChar: uni06F0
Encoding: 1776 1776 85
GlifName: uni06F_0
Width: 895
VWidth: 3370
GlyphClass: 2
Flags: HW
LayerCount: 2
Fore
SplineSet
334 544 m 0
 334 481 384 431 447 431 c 0
 510 431 560 481 560 544 c 0
 560 607 510 657 447 657 c 0
 384 657 334 607 334 544 c 0
170 544 m 0
 170 697 294 821 447 821 c 0
 600 821 724 697 724 544 c 0
 724 391 600 267 447 267 c 0
 294 267 170 391 170 544 c 0
EndSplineSet
PairPos2: "'kern' Horizontal Kerning lookup 0 subtable 6" uni06F8 dx=-40 dy=0 dh=-40 dv=0 dx=0 dy=0 dh=0 dv=0
PairPos2: "'kern' Horizontal Kerning lookup 0 subtable 6" uni06F7 dx=-40 dy=0 dh=-40 dv=0 dx=0 dy=0 dh=0 dv=0
PairPos2: "'kern' Horizontal Kerning lookup 0 subtable 6" uni06F6 dx=-40 dy=0 dh=-40 dv=0 dx=0 dy=0 dh=0 dv=0
PairPos2: "'kern' Horizontal Kerning lookup 0 subtable 6" uni06F4 dx=-40 dy=0 dh=-40 dv=0 dx=0 dy=0 dh=0 dv=0
PairPos2: "'kern' Horizontal Kerning lookup 0 subtable 6" uni06F3 dx=-40 dy=0 dh=-40 dv=0 dx=0 dy=0 dh=0 dv=0
PairPos2: "'kern' Horizontal Kerning lookup 0 subtable 6" uni06F2 dx=-40 dy=0 dh=-40 dv=0 dx=0 dy=0 dh=0 dv=0
EndChar

StartChar: uni06F4
Encoding: 1780 1780 89
GlifName: uni06F_4
Width: 1187
VWidth: 3084
GlyphClass: 2
Flags: HW
LayerCount: 2
Fore
SplineSet
659.605140358 1115.24535135 m 0
 659.605140358 1038.01695241 740.767589275 1011.29150304 829.315209146 1011.29150304 c 0
 895.16929425 1011.29150304 974.273859952 1026.20962282 1066.62890625 1056.04589844 c 1
 1100.25097656 999.274414062 l 1
 1042.7153329 841.490421656 941.181366234 762.598425454 795.649076555 762.598425454 c 0
 673.485213842 762.598425454 574.367605613 804.910112596 497.072265625 886.883789062 c 1
 527.958545077 720.855096267 545.318088972 530.986561542 545.318088972 320.641849247 c 0
 545.318088972 125.280879974 498.724103585 16.5301463707 405.536132812 -5.6103515625 c 1
 405.520507812 18.478515625 l 2
 405.173502604 383.492838542 317.1875 803.166666667 122 1278 c 1
 260 1459 l 2
 278 1483 308.107737397 1496.60811197 323.282226562 1450.95703125 c 2
 357.673828125 1347.49316406 l 2
 391.224609375 1247.16438802 444.661132813 1177.66438802 517.983398438 1138.99316406 c 1
 541.297744184 1346.72992102 632.551070062 1450.59817442 791.743376071 1450.59817442 c 0
 912.902268826 1450.49625756 994.861164183 1389.39399389 1039.13183594 1264.63671875 c 1
 1002.79589844 1217.43652344 l 1
 934.145946914 1243.22398674 875.549519234 1256.11770757 827.006615401 1256.11770757 c 0
 729.104857041 1256.11770757 659.605140358 1194.37306663 659.605140358 1115.24535135 c 0
EndSplineSet
PairPos2: "'kern' Horizontal Kerning lookup 0 subtable 6" uni06F8 dx=-70 dy=0 dh=-70 dv=0 dx=0 dy=0 dh=0 dv=0
PairPos2: "'kern' Horizontal Kerning lookup 0 subtable 6" uni06F5 dx=-70 dy=0 dh=-70 dv=0 dx=0 dy=0 dh=0 dv=0
EndChar

StartChar: uni06F5
Encoding: 1781 1781 90
GlifName: uni06F_5
Width: 1133
VWidth: 3163
GlyphClass: 2
Flags: HW
LayerCount: 2
Fore
SplineSet
332.644720015 308.796094912 m 0
 428.425615188 308.796094912 492.127301829 375.286085201 524.471679688 506.22265625 c 1
 606.418945312 504.353515625 l 1
 617.85659687 456.406588932 669.476982262 308.783822311 809.733741089 308.783822311 c 0
 881.421229952 308.783822311 908.803710938 342.022460938 908.803710938 412.599609375 c 0
 908.803710938 554.258789062 780.440514501 791.48750487 530.918945312 1050.9609375 c 1
 331.355837227 746.741086519 240.775156317 550.791202643 240.775156317 424.006107892 c 0
 240.775156317 347.199934645 271.397842143 308.796094912 332.644720015 308.796094912 c 0
302.323351963 2.63253376237 m 0
 152.45553642 2.63253376237 74.8503163288 112.5014499 74.8503163288 328.180855983 c 0
 74.8503163288 513.180637274 176.791992188 809.561523438 420 1178 c 1
 374.12109375 1219.27929688 l 1
 474.467773438 1423.19140625 l 2
 498.781848344 1472.59946157 508.000656018 1462.04555814 540.328125 1429.7890625 c 0
 821.736426225 1149.19129461 1056.10546875 774.984375 1056.10546875 372.389648438 c 0
 1056.10546875 176.541015625 1002.59509149 2.99320225636 820.520507812 3.0576171875 c 0
 710.83984375 3.01953125 626.685546875 70.2216796875 568.055664062 184.6640625 c 1
 513.226230912 69.9594827918 424.864227844 2.63253376237 302.323351963 2.63253376237 c 0
EndSplineSet
PairPos2: "'kern' Horizontal Kerning lookup 0 subtable 6" uni06F0 dx=-30 dy=0 dh=-30 dv=0 dx=0 dy=0 dh=0 dv=0
PairPos2: "'kern' Horizontal Kerning lookup 0 subtable 6" uni06F7 dx=-70 dy=0 dh=-70 dv=0 dx=0 dy=0 dh=0 dv=0
PairPos2: "'kern' Horizontal Kerning lookup 0 subtable 6" uni06F6 dx=-70 dy=0 dh=-70 dv=0 dx=0 dy=0 dh=0 dv=0
PairPos2: "'kern' Horizontal Kerning lookup 0 subtable 6" uni06F4 dx=-70 dy=0 dh=-70 dv=0 dx=0 dy=0 dh=0 dv=0
PairPos2: "'kern' Horizontal Kerning lookup 0 subtable 6" uni06F3 dx=-100 dy=0 dh=-100 dv=0 dx=0 dy=0 dh=0 dv=0
PairPos2: "'kern' Horizontal Kerning lookup 0 subtable 6" uni06F2 dx=-100 dy=0 dh=-100 dv=0 dx=0 dy=0 dh=0 dv=0
EndChar

StartChar: uni06F6
Encoding: 1782 1782 91
GlifName: uni06F_6
Width: 1075
VWidth: 3374
GlyphClass: 2
Flags: HW
LayerCount: 2
Fore
SplineSet
781 1200 m 1
 692 1233 644 1243 559 1243 c 0
 449.25 1243 315 1133.10284328 315 1073 c 0
 315 1069 316 1067 318 1064 c 0
 365 1021 469 999 627 999 c 0
 691 999 710 1005 802 1043 c 0
 872 1072 912.651667169 1083.97317222 924 1088 c 0
 986 1110 993.184570312 1077.8984375 972 1013 c 2
 903 802 l 1
 590.725290768 614.53217228 411.495117188 402.102539062 177.145507812 -6.306640625 c 1
 70 166 351 657 474 770 c 5
 278 827 175 927 175 1066 c 0
 175 1239.78245433 348.025442878 1480 550 1480 c 0
 682 1480 773 1403 837 1264 c 1
 781 1200 l 1
EndSplineSet
EndChar

StartChar: uniFB8F
Encoding: 64399 64399 106
GlifName: uniF_B_8F_
Width: 2278
VWidth: 3808
GlyphClass: 2
Flags: HW
AnchorPoint: "Anchor-10" 1195.31 1454.92 basechar 0
AnchorPoint: "Anchor-7" 876.157 -267.146 basechar 0
LayerCount: 2
Fore
SplineSet
1605 451 m 0
 1605 504 1264.94969138 798.563385298 1073 940 c 0
 1054 954 1044 978 1044 997 c 0
 1044 1001 1045 1006 1046 1010 c 2
 1104 1204 l 2
 1110 1225 1121 1238 1133 1243 c 2
 1899 1568 l 2
 1925 1579 1930 1568 1925 1539 c 2
 1888 1319 l 1
 1308 1078 l 1
 1571 827 1703.21582031 697.201171875 1818 574 c 0
 1968 413 2129 333 2262 333 c 2
 2285 333 l 2
 2312 333 2314 294 2314 217 c 6
 2314 114 l 6
 2314 38 2311 0 2285 0 c 2
 2262 0 l 2
 2047 0 1886.01367188 115 1738.01367188 332 c 1
 1660.91113281 34.83984375 1244.43481374 -57 832 -57 c 0
 351.8671875 -57 96.98828125 55.1259765625 96.98828125 396.009765625 c 0
 96.98828125 520.932617188 136.177734375 638.754882812 213 755 c 1
 304 718 l 1
 267.67578125 628.19921875 249.99609375 560.041015625 249.99609375 508.694335938 c 0
 249.99609375 332.71484375 449.002929688 275 855 275 c 0
 1130.52998377 275 1605 284.649414062 1605 451 c 0
EndSplineSet
EndChar

StartChar: uniFB93
Encoding: 64403 64403 110
GlifName: uniF_B_93
Width: 2201
VWidth: 3808
GlyphClass: 2
Flags: HW
AnchorPoint: "Anchor-10" 1303.36 1591.03 basechar 0
AnchorPoint: "Anchor-7" 876.157 -267.146 basechar 0
LayerCount: 2
Fore
SplineSet
1306 1008 m 1
 1388 940 1564 840 1755 641 c 0
 1952 436 2055 333 2183 333 c 2
 2206 333 l 2
 2232 333 2236 283 2236 162 c 6
 2236 155 l 6
 2236 58 2232 0 2206 0 c 2
 2183 0 l 2
 2006 0 1885.4375 126 1733.4375 316 c 1
 1644.8433384 30.6353769116 1236.96213066 -57 832 -57 c 0
 351.8671875 -57 96.98828125 55.1259765625 96.98828125 396.009765625 c 0
 96.98828125 520.932617188 136.177734375 638.754882812 213 755 c 1
 304 718 l 1
 267.67578125 628.19921875 249.99609375 560.041015625 249.99609375 508.694335938 c 0
 249.99609375 332.71484375 449.002929688 275 855 275 c 0
 1130.52998377 275 1606.78417969 288.626953125 1606.78417969 444.977539062 c 0
 1606.78417969 537.083007812 1282.484375 725.416992188 1071 870 c 0
 1052 884 1042 908 1042 927 c 0
 1042 931 1043 936 1044 940 c 2
 1102 1134 l 2
 1108 1155 1119 1168 1131 1173 c 2
 1897 1498 l 2
 1923 1509 1928 1498 1923 1469 c 2
 1886 1249 l 1
 1306 1008 l 1
EndSplineSet
Refer: 272 -1 N 1.1342 0 0 1.1342 1045 -777 2
EndChar

StartChar: uniFB94
Encoding: 64404 64404 111
GlifName: uniF_B_94
Width: 955
VWidth: 3808
GlyphClass: 2
Flags: HW
AnchorPoint: "Anchor-10" 290.851 1565.67 basechar 0
AnchorPoint: "Anchor-7" 314.687 -250.871 basechar 0
LayerCount: 2
Fore
SplineSet
-5 333 m 6
 137 333 l 2
 324 333 576 337 576 451 c 0
 576 541 135 801 45 870 c 0
 26 884 16 908 16 927 c 0
 16 931 17 936 18 940 c 2
 76 1134 l 2
 82 1155 93 1168 105 1173 c 2
 871 1498 l 2
 897 1509 902 1498 897 1469 c 2
 860 1249 l 1
 280 1008 l 1
 492 869.099975586 725.0078125 649.252929688 725.0078125 465.30859375 c 0
 725.0078125 158.370117188 520 0 133 0 c 2
 -5 0 l 6
 -48 0 -50 38 -50 113 c 6
 -50 219 l 6
 -50 295 -48 333 -5 333 c 6
EndSplineSet
Refer: 272 -1 N 1.1342 0 0 1.1342 17 -777 2
EndChar

StartChar: uniFB95
Encoding: 64405 64405 112
GlifName: uniF_B_95
Width: 1174
VWidth: 3808
GlyphClass: 2
Flags: HW
AnchorPoint: "Anchor-7" 314.687 -250.871 basechar 0
AnchorPoint: "Anchor-10" 290.851 1565.67 basechar 0
LayerCount: 2
Fore
SplineSet
-5 333 m 2
 136 333 l 2
 323 333 576 338 576 451 c 0
 576 541 135 801 45 870 c 0
 26 884 16 908 16 927 c 0
 16 931 17 936 18 940 c 2
 76 1134 l 2
 82 1155 93 1168 105 1173 c 2
 871 1498 l 2
 897 1509 902 1498 897 1469 c 2
 860 1249 l 1
 280 1008 l 1
 362 940 538 840 729 641 c 0
 926 436 1029 333 1157 333 c 2
 1180 333 l 2
 1206 333 1209 283 1209 162 c 6
 1209 155 l 6
 1209 58 1206 0 1180 0 c 2
 1157 0 l 2
 980 0 869 125 717 315 c 1
 693 164.771484375 500 0 133 0 c 2
 -5 0 l 2
 -48 0 -50 38 -50 113 c 2
 -50 219 l 2
 -50 295 -48 333 -5 333 c 2
EndSplineSet
Refer: 272 -1 N 1.1342 0 0 1.1342 17 -777 2
EndChar

StartChar: uniFB9F
Encoding: 64415 64415 114
GlifName: uniF_B_9F_
Width: 1479
VWidth: 3808
GlyphClass: 2
Flags: HW
AnchorPoint: "Anchor-10" 599.156 1040.11 basechar 0
AnchorPoint: "Anchor-7" 472.178 -1009.45 basechar 0
LayerCount: 2
Fore
SplineSet
1206 454 m 0
 1259.81738281 354.517578125 1296.22779422 333 1443 333 c 2
 1485 333 l 2
 1512 333 1514 294 1514 217 c 6
 1514 114 l 6
 1514 38 1512 0 1485 0 c 2
 1453 0 l 2
 1377 0 1339 13 1292 40 c 1
 1286 -387 1029 -600 651 -600 c 0
 305.448242188 -600 93 -473.096679688 93 -170 c 0
 93 -46 129 98 200 261 c 1
 290 223 l 1
 253 131 235 50 235 -19 c 0
 235 -214.5859375 410.442382812 -289 642 -289 c 0
 871 -289 1066 -224 1165 -103 c 1
 1110 50 1044 199 967 324 c 1
 1090 530 l 2
 1115.41992188 571.8671875 1127.54882812 590.751953125 1152 550 c 128
 1161 535 1179 503 1206 454 c 0
EndSplineSet
EndChar

StartChar: uniFBE8
Encoding: 64488 64488 117
GlifName: uniF_B_E_8
Width: 669
VWidth: 3807
GlyphClass: 2
Flags: HW
AnchorPoint: "Anchor-10" 328.943 1311.83 basechar 0
AnchorPoint: "Anchor-7" 357.044 -246.154 basechar 0
LayerCount: 2
Fore
SplineSet
-5 333 m 2
 140 333 l 2
 256 333 413 347.641751218 413 407 c 4
 413 439.730760577 350.788085938 537.544921875 295 611 c 5
 418 831 l 6
 432 857 443 869 450 869 c 4
 458 869 468 858 482 837 c 4
 558 720 587 603 587 454 c 4
 587 189 412 0 142 0 c 2
 -5 0 l 2
 -48 0 -50 38 -50 113 c 2
 -50 219 l 2
 -50 295 -48 333 -5 333 c 2
EndSplineSet
EndChar

StartChar: uniFBE9
Encoding: 64489 64489 118
GlifName: uniF_B_E_9
Width: 793
VWidth: 3807
GlyphClass: 2
Flags: HW
AnchorPoint: "Anchor-10" 403.931 1197.71 basechar 0
AnchorPoint: "Anchor-7" 377.847 -204.398 basechar 0
LayerCount: 2
Fore
SplineSet
-5 333 m 2
 145 333 l 2
 343 333 443 392 446 511 c 2
 449 615 l 5
 566 615 l 5
 572 515 l 2
 578 394 585 333 775 333 c 2
 798 333 l 2
 825 333 828 294 828 217 c 2
 828 114 l 2
 828 38 825 0 798 0 c 2
 776 0 l 2
 648 0 571 58 513 154 c 1
 443 58 307 0 138 0 c 2
 -5 0 l 2
 -48 0 -50 38 -50 113 c 2
 -50 219 l 2
 -50 295 -48 333 -5 333 c 2
EndSplineSet
EndChar

StartChar: uniFE73
Encoding: 65139 65139 126
GlifName: uniF_E_73
Width: 785
GlyphClass: 2
Flags: HW
AnchorPoint: "Anchor-10" 369 1242 basechar 0
AnchorPoint: "Anchor-7" 377 -188 basechar 0
LayerCount: 2
Fore
SplineSet
309 464 m 2
 309 275 439 180 699 180 c 2
 790 180 l 1
 790 3 l 1
 686 3 l 2
 296 3 101 150 101 444 c 2
 101 481 l 1
 309 481 l 1
 309 464 l 2
EndSplineSet
EndChar

StartChar: uniFE8E
Encoding: 65166 65166 152
GlifName: uniF_E_8E_
Width: 538
VWidth: 3767
GlyphClass: 2
Flags: HW
AnchorPoint: "Anchor-10" 179.89 1631.48 basechar 0
AnchorPoint: "Anchor-7" 305.394 -215.548 basechar 0
LayerCount: 2
Fore
SplineSet
335 702 m 0
 338.865122446 426.1380512 332.641601562 333 522 333 c 2
 543 333 l 6
 570 333 573 294 573 217 c 6
 573 114 l 6
 573 38 569 0 543 0 c 6
 522 0 l 2
 221.512695312 0 158.030111753 142.574126725 142 549 c 0
 129.497070312 865.998046875 122 1147 88 1355 c 1
 249 1527 l 2
 303 1586 317.244682371 1591.57863812 321 1483 c 0
 330.799804688 1199.65527344 331.239257812 970.412109375 335 702 c 0
EndSplineSet
EndChar

StartChar: uniFEA2
Encoding: 65186 65186 172
GlifName: uniF_E_A_2
Width: 1332
VWidth: 3802
GlyphClass: 2
Flags: HW
AnchorPoint: "Anchor-7" 644.792 -826.821 basechar 0
AnchorPoint: "Anchor-10" 598.28 1182.97 basechar 0
LayerCount: 2
Fore
SplineSet
1337 0 m 2
 1294 0 l 2
 1017 0 889 141.989257812 871 427.989257812 c 1
 532.632965347 351.179418145 236 188.345652373 236 -91 c 0
 236 -296 510 -362 772 -362 c 0
 934 -362 1031.10351562 -343.551757812 1118 -327 c 0
 1202 -311 1206.14257812 -315.323242188 1179 -373 c 0
 1095 -549 958 -637 718 -637 c 0
 329 -637 94 -469 94 -135 c 0
 94 249 371 513 678 595 c 1
 577 614 485 648 373 648 c 0
 299 648 232 598 169 521 c 1
 81 575 l 1
 174 800 276 927 389 927 c 0
 450 927 638 876 979 777 c 0
 1049 756 1123 746 1200 746 c 2
 1220 746 l 2
 1262 746 1244 721 1234 696 c 2
 1139 471 l 1
 1092.90417897 466.411758555 1047.36425781 460.486328125 1001 453 c 1
 1005 373 1103 333 1294 333 c 2
 1337 333 l 2
 1364 333 1367 294 1367 217 c 2
 1367 114 l 2
 1367 38 1363 0 1337 0 c 2
EndSplineSet
EndChar

StartChar: uniFEA3
Encoding: 65187 65187 173
GlifName: uniF_E_A_3
Width: 1472
VWidth: 3808
GlyphClass: 2
Flags: HW
AnchorPoint: "Anchor-10" 574.444 1195.68 basechar 0
AnchorPoint: "Anchor-7" 543.297 -212.934 basechar 0
LayerCount: 2
Fore
SplineSet
-5 333 m 6
 101 333 l 2
 470 333 724 377 924 464 c 1
 808.935853596 514.23927519 576.841088104 612 480 612 c 0
 369 612 286 560 217 473 c 1
 138 519 l 1
 211.20232185 759.521914649 329.735351562 901 503 901 c 0
 743.739257812 901 1061.1796875 642 1350 642 c 0
 1392 642 1418 640 1426 636 c 0
 1431 634 1430 623 1424 605 c 1
 1310 375 l 1
 1226 375 l 2
 988 375 659 0 101 0 c 2
 -5 0 l 6
 -48 0 -50 38 -50 113 c 6
 -50 219 l 6
 -50 295 -48 333 -5 333 c 6
EndSplineSet
EndChar

StartChar: uniFEA4
Encoding: 65188 65188 174
GlifName: uniF_E_A_4
Width: 1510
VWidth: 3808
GlyphClass: 2
Flags: HW
AnchorPoint: "Anchor-10" 574.444 1195.68 basechar 0
AnchorPoint: "Anchor-7" 548.556 -220.048 basechar 0
LayerCount: 2
Fore
SplineSet
-5 333 m 6
 101 333 l 6
 470 333 723 377 924 464 c 5
 809 514 577 612 480 612 c 4
 369 612 286 560 217 473 c 5
 138 519 l 5
 211 760 330 901 503 901 c 4
 744 901 1061 642 1350 642 c 4
 1392 642 1418 640 1426 636 c 4
 1431 634 1430 623 1424 605 c 5
 1320 395 l 5
 1226 395 l 6
 1197 395 1161 390 1136 380 c 5
 1142 339 1177 333 1308 333 c 6
 1515 333 l 6
 1542 333 1545 294 1545 217 c 6
 1545 114 l 6
 1545 38 1541 0 1515 0 c 6
 1308 0 l 6
 1093 0 965 91 961 302 c 5
 750 191 518 0 101 0 c 6
 -5 0 l 6
 -48 0 -50 38 -50 113 c 6
 -50 219 l 6
 -50 295 -48 333 -5 333 c 6
EndSplineSet
EndChar

StartChar: uniFEAA
Encoding: 65194 65194 180
GlifName: uniF_E_A_A_
Width: 1179
VWidth: 3796
GlyphClass: 2
Flags: HW
AnchorPoint: "Anchor-10" 667.225 1274.18 basechar 0
AnchorPoint: "Anchor-7" 470.662 -216.64 basechar 0
LayerCount: 2
Fore
SplineSet
414 2 m 0
 188 3 83 110 83 326 c 0
 83 375 96 447 121 541 c 1
 213 522 l 1
 211 501 209 481 209 459 c 0
 209 376 279 335 433 335 c 0
 571 335 746 360 746 437 c 0
 746 448 744 461 741 475 c 1
 576 928 l 1
 686 1084 l 2
 716.255859375 1125.6015625 728.580474233 1126.8138921 746 1073 c 2
 914 554 l 2
 961 410 1004 333 1158 333 c 2
 1183 333 l 2
 1210 333 1214 294 1214 217 c 6
 1214 114 l 6
 1214 38 1210 0 1183 0 c 2
 1158 0 l 2
 1006 0 918 84 836 233 c 1
 763 102 l 1
 670 35 551 2 414 2 c 0
EndSplineSet
PairPos2: "'kern' Horizontal Kerning lookup 0 subtable 4" uniFB90 dx=-120 dy=0 dh=-120 dv=0 dx=0 dy=0 dh=0 dv=0
PairPos2: "'kern' Horizontal Kerning lookup 0 subtable 4" uni06A9 dx=-120 dy=0 dh=-120 dv=0 dx=0 dy=0 dh=0 dv=0
PairPos2: "'kern' Horizontal Kerning lookup 0 subtable 4" uniFB94 dx=-120 dy=0 dh=-120 dv=0 dx=0 dy=0 dh=0 dv=0
PairPos2: "'kern' Horizontal Kerning lookup 0 subtable 4" uni06AF dx=-120 dy=0 dh=-120 dv=0 dx=0 dy=0 dh=0 dv=0
EndChar

StartChar: uniFEAE
Encoding: 65198 65198 184
GlifName: uniF_E_A_E_
Width: 882
VWidth: 3807
GlyphClass: 2
Flags: HW
AnchorPoint: "Anchor-7" 341.096 -713.978 basechar 0
AnchorPoint: "Anchor-10" 524.788 912 basechar 0
LayerCount: 2
Fore
SplineSet
887 0 m 6
 862 0 l 2
 784 0 763 12 720 36 c 1
 707 -157 617 -348 520 -460 c 0
 462 -527 426 -552 299 -552 c 0
 235 -552 -65 -524 -65 -471 c 0
 -65 -461 -48 -449 -16 -440 c 0
 327 -342 578 -41 578 52 c 0
 578 103 535 179 438 301 c 1
 552 521 l 2
 561 537 573 534 588 513 c 0
 621 468 647 432 667 406 c 0
 719 338 744 333 862 333 c 2
 887 333 l 6
 914 333 917 294 917 217 c 6
 917 114 l 6
 917 38 913 0 887 0 c 6
EndSplineSet
PairPos2: "'kern' Horizontal Kerning lookup 0 subtable 3" uni06C0 dx=-128 dy=0 dh=-128 dv=0 dx=0 dy=0 dh=0 dv=0
PairPos2: "'kern' Horizontal Kerning lookup 0 subtable 3" uni0621 dx=-128 dy=0 dh=-128 dv=0 dx=0 dy=0 dh=0 dv=0
PairPos2: "'kern' Horizontal Kerning lookup 0 subtable 2" uni0648 dx=-43 dy=0 dh=-43 dv=0 dx=0 dy=0 dh=0 dv=0
PairPos2: "'kern' Horizontal Kerning lookup 0 subtable 0" uniFB58 dx=20 dy=0 dh=20 dv=0 dx=0 dy=0 dh=0 dv=0
PairPos2: "'kern' Horizontal Kerning lookup 0 subtable 0" uni0644 dx=-43 dy=0 dh=-43 dv=0 dx=0 dy=0 dh=0 dv=0
PairPos2: "'kern' Horizontal Kerning lookup 0 subtable 0" uni0642 dx=-43 dy=0 dh=-43 dv=0 dx=0 dy=0 dh=0 dv=0
PairPos2: "'kern' Horizontal Kerning lookup 0 subtable 0" uni0632 dx=-43 dy=0 dh=-43 dv=0 dx=0 dy=0 dh=0 dv=0
PairPos2: "'kern' Horizontal Kerning lookup 0 subtable 0" uni0631 dx=-43 dy=0 dh=-43 dv=0 dx=0 dy=0 dh=0 dv=0
PairPos2: "'kern' Horizontal Kerning lookup 0 subtable 0" uniFB8A dx=-43 dy=0 dh=-43 dv=0 dx=0 dy=0 dh=0 dv=0
PairPos2: "'kern' Horizontal Kerning lookup 0 subtable 0" uni0698 dx=-43 dy=0 dh=-43 dv=0 dx=0 dy=0 dh=0 dv=0
PairPos2: "'kern' Horizontal Kerning lookup 0 subtable 0" uniFB7C dx=-148 dy=0 dh=-148 dv=0 dx=0 dy=0 dh=0 dv=0
PairPos2: "'kern' Horizontal Kerning lookup 0 subtable 0" uni06CC dx=-43 dy=0 dh=-43 dv=0 dx=0 dy=0 dh=0 dv=0
PairPos2: "'kern' Horizontal Kerning lookup 0 subtable 0" uniFEEB dx=-148 dy=0 dh=-148 dv=0 dx=0 dy=0 dh=0 dv=0
PairPos2: "'kern' Horizontal Kerning lookup 0 subtable 0" uniFEDF dx=-148 dy=0 dh=-148 dv=0 dx=0 dy=0 dh=0 dv=0
PairPos2: "'kern' Horizontal Kerning lookup 0 subtable 0" uniFB90 dx=-213 dy=0 dh=-213 dv=0 dx=0 dy=0 dh=0 dv=0
PairPos2: "'kern' Horizontal Kerning lookup 0 subtable 0" uni06A9 dx=-213 dy=0 dh=-213 dv=0 dx=0 dy=0 dh=0 dv=0
PairPos2: "'kern' Horizontal Kerning lookup 0 subtable 0" uni0649 dx=-43 dy=0 dh=-43 dv=0 dx=0 dy=0 dh=0 dv=0
PairPos2: "'kern' Horizontal Kerning lookup 0 subtable 0" uni0647 dx=-148 dy=0 dh=-148 dv=0 dx=0 dy=0 dh=0 dv=0
PairPos2: "'kern' Horizontal Kerning lookup 0 subtable 0" uniFEE7 dx=-148 dy=0 dh=-148 dv=0 dx=0 dy=0 dh=0 dv=0
PairPos2: "'kern' Horizontal Kerning lookup 0 subtable 0" uniFEE3 dx=-148 dy=0 dh=-148 dv=0 dx=0 dy=0 dh=0 dv=0
PairPos2: "'kern' Horizontal Kerning lookup 0 subtable 0" uni0645 dx=-148 dy=0 dh=-148 dv=0 dx=0 dy=0 dh=0 dv=0
PairPos2: "'kern' Horizontal Kerning lookup 0 subtable 0" uniFEDB dx=-213 dy=0 dh=-213 dv=0 dx=0 dy=0 dh=0 dv=0
PairPos2: "'kern' Horizontal Kerning lookup 0 subtable 0" uniFED7 dx=-148 dy=0 dh=-148 dv=0 dx=0 dy=0 dh=0 dv=0
PairPos2: "'kern' Horizontal Kerning lookup 0 subtable 0" uniFED3 dx=-148 dy=0 dh=-148 dv=0 dx=0 dy=0 dh=0 dv=0
PairPos2: "'kern' Horizontal Kerning lookup 0 subtable 0" uni0641 dx=-148 dy=0 dh=-148 dv=0 dx=0 dy=0 dh=0 dv=0
PairPos2: "'kern' Horizontal Kerning lookup 0 subtable 0" uniFECF dx=-148 dy=0 dh=-148 dv=0 dx=0 dy=0 dh=0 dv=0
PairPos2: "'kern' Horizontal Kerning lookup 0 subtable 0" uniFECB dx=-148 dy=0 dh=-148 dv=0 dx=0 dy=0 dh=0 dv=0
PairPos2: "'kern' Horizontal Kerning lookup 0 subtable 0" uniFEC7 dx=-148 dy=0 dh=-148 dv=0 dx=0 dy=0 dh=0 dv=0
PairPos2: "'kern' Horizontal Kerning lookup 0 subtable 0" uni0638 dx=-148 dy=0 dh=-148 dv=0 dx=0 dy=0 dh=0 dv=0
PairPos2: "'kern' Horizontal Kerning lookup 0 subtable 0" uniFEC3 dx=-148 dy=0 dh=-148 dv=0 dx=0 dy=0 dh=0 dv=0
PairPos2: "'kern' Horizontal Kerning lookup 0 subtable 0" uni0637 dx=-148 dy=0 dh=-148 dv=0 dx=0 dy=0 dh=0 dv=0
PairPos2: "'kern' Horizontal Kerning lookup 0 subtable 0" uniFEBF dx=-148 dy=0 dh=-148 dv=0 dx=0 dy=0 dh=0 dv=0
PairPos2: "'kern' Horizontal Kerning lookup 0 subtable 0" uni0636 dx=-148 dy=0 dh=-148 dv=0 dx=0 dy=0 dh=0 dv=0
PairPos2: "'kern' Horizontal Kerning lookup 0 subtable 0" uniFEBB dx=-148 dy=0 dh=-148 dv=0 dx=0 dy=0 dh=0 dv=0
PairPos2: "'kern' Horizontal Kerning lookup 0 subtable 0" uni0635 dx=-148 dy=0 dh=-148 dv=0 dx=0 dy=0 dh=0 dv=0
PairPos2: "'kern' Horizontal Kerning lookup 0 subtable 0" uniFEB7 dx=-148 dy=0 dh=-148 dv=0 dx=0 dy=0 dh=0 dv=0
PairPos2: "'kern' Horizontal Kerning lookup 0 subtable 0" uni0634 dx=-148 dy=0 dh=-148 dv=0 dx=0 dy=0 dh=0 dv=0
PairPos2: "'kern' Horizontal Kerning lookup 0 subtable 0" uniFEB3 dx=-148 dy=0 dh=-148 dv=0 dx=0 dy=0 dh=0 dv=0
PairPos2: "'kern' Horizontal Kerning lookup 0 subtable 0" uni0633 dx=-148 dy=0 dh=-148 dv=0 dx=0 dy=0 dh=0 dv=0
PairPos2: "'kern' Horizontal Kerning lookup 0 subtable 0" uni0630 dx=-148 dy=0 dh=-148 dv=0 dx=0 dy=0 dh=0 dv=0
PairPos2: "'kern' Horizontal Kerning lookup 0 subtable 0" uni062F dx=-148 dy=0 dh=-148 dv=0 dx=0 dy=0 dh=0 dv=0
PairPos2: "'kern' Horizontal Kerning lookup 0 subtable 0" uniFEA7 dx=-148 dy=0 dh=-148 dv=0 dx=0 dy=0 dh=0 dv=0
PairPos2: "'kern' Horizontal Kerning lookup 0 subtable 0" uniFEA3 dx=-148 dy=0 dh=-148 dv=0 dx=0 dy=0 dh=0 dv=0
PairPos2: "'kern' Horizontal Kerning lookup 0 subtable 0" uniFE9F dx=-148 dy=0 dh=-148 dv=0 dx=0 dy=0 dh=0 dv=0
PairPos2: "'kern' Horizontal Kerning lookup 0 subtable 0" uniFE9B dx=-148 dy=0 dh=-148 dv=0 dx=0 dy=0 dh=0 dv=0
PairPos2: "'kern' Horizontal Kerning lookup 0 subtable 0" uni062B dx=-148 dy=0 dh=-148 dv=0 dx=0 dy=0 dh=0 dv=0
PairPos2: "'kern' Horizontal Kerning lookup 0 subtable 0" uniFE97 dx=-148 dy=0 dh=-148 dv=0 dx=0 dy=0 dh=0 dv=0
PairPos2: "'kern' Horizontal Kerning lookup 0 subtable 0" uni062A dx=-148 dy=0 dh=-148 dv=0 dx=0 dy=0 dh=0 dv=0
PairPos2: "'kern' Horizontal Kerning lookup 0 subtable 0" uni0629 dx=-148 dy=0 dh=-148 dv=0 dx=0 dy=0 dh=0 dv=0
PairPos2: "'kern' Horizontal Kerning lookup 0 subtable 0" uni0628 dx=-148 dy=0 dh=-148 dv=0 dx=0 dy=0 dh=0 dv=0
PairPos2: "'kern' Horizontal Kerning lookup 0 subtable 0" uni0627 dx=-148 dy=0 dh=-148 dv=0 dx=0 dy=0 dh=0 dv=0
PairPos2: "'kern' Horizontal Kerning lookup 0 subtable 0" uni0622 dx=-148 dy=0 dh=-148 dv=0 dx=0 dy=0 dh=0 dv=0
PairPos2: "'kern' Horizontal Kerning lookup 0 subtable 0" uniFB94 dx=-235 dy=0 dh=-235 dv=0 dx=0 dy=0 dh=0 dv=0
PairPos2: "'kern' Horizontal Kerning lookup 0 subtable 0" uni06AF dx=-235 dy=0 dh=-235 dv=0 dx=0 dy=0 dh=0 dv=0
PairPos2: "'kern' Horizontal Kerning lookup 0 subtable 0" uniFB56 dx=-148 dy=0 dh=-148 dv=0 dx=0 dy=0 dh=0 dv=0
PairPos2: "'kern' Horizontal Kerning lookup 0 subtable 0" uni067E dx=-148 dy=0 dh=-148 dv=0 dx=0 dy=0 dh=0 dv=0
EndChar

StartChar: uniFEB2
Encoding: 65202 65202 188
GlifName: uniF_E_B_2
Width: 2503
VWidth: 3807
GlyphClass: 2
Flags: HW
AnchorPoint: "Anchor-7" 636.427 -790.57 basechar 0
AnchorPoint: "Anchor-10" 1698.47 1125.44 basechar 0
LayerCount: 2
Fore
SplineSet
1918 2 m 8
 1802 3 1722 63 1661 153 c 1
 1585 61 1508 -1 1426 -1 c 0
 1382 -1 1337 13 1293 40 c 1
 1287 -387 1030 -600 652 -600 c 0
 306.448242188 -600 94 -473.096679688 94 -170 c 0
 94 -46 130 98 201 261 c 1
 291 223 l 1
 254 131 236 50 236 -19 c 0
 236 -214.5859375 411.442382812 -289 643 -289 c 0
 872 -289 1067 -224 1166 -103 c 1
 1111 50 1045 199 968 324 c 1
 1091 530 l 2
 1116.41992188 571.8671875 1128.54882812 590.751953125 1153 550 c 128
 1162 535 1180 503 1207 454 c 0
 1259 360 1299 333 1431 333 c 0
 1542 333 1607 389 1624 493 c 2
 1643 605 l 5
 1764 587 l 5
 1753 500 l 2
 1740.38191546 388.731436295 1836 334 1926 333 c 0
 2053 333 2113 390 2116 514 c 2
 2119 618 l 5
 2236 618 l 5
 2241 518 l 2
 2247 396 2307 335 2481 335 c 2
 2507 335 l 2
 2534 335 2538 296 2538 219 c 2
 2538 116 l 2
 2538 40 2533 2 2507 2 c 2
 2482 2 l 2
 2312 2 2236 62 2186 151 c 1
 2120 62 2038 2 1918 2 c 8
EndSplineSet
EndChar

StartChar: uniFEB3
Encoding: 65203 65203 189
GlifName: uniF_E_B_3
Width: 1602
VWidth: 3807
GlyphClass: 2
Flags: HW
AnchorPoint: "Anchor-10" 911.609 1132.63 basechar 0
AnchorPoint: "Anchor-7" 806.934 -221.292 basechar 0
LayerCount: 2
Fore
SplineSet
-5 333 m 2
 69 333 l 2
 263 333 349 379 365 469 c 2
 387 581 l 1
 504 563 l 1
 489 477 l 2
 488 468 487 458 487 450 c 0
 487 372 549 333 668 333 c 0
 798 333 869 384 887 490 c 2
 908 603 l 1
 1029 585 l 1
 1017 498 l 2
 1016 488 1015 479 1015 470 c 0
 1015 379 1076 333 1199 333 c 0
 1298 333 1347 359 1347 409 c 0
 1347 431 1308 496 1234 604 c 1
 1366 832 l 2
 1388 869 1399 857 1420 821 c 0
 1484 716 1518 591 1518 447 c 0
 1518 232 1384 0 1181 -0 c 0
 1075 0 981 59 927 149 c 1
 852 58 765 0 658 0 c 0
 534 0 444 59 393 148 c 1
 325 59 229 0 69 0 c 2
 -5 0 l 2
 -48 0 -50 38 -50 113 c 2
 -50 219 l 2
 -50 295 -48 333 -5 333 c 2
EndSplineSet
EndChar

StartChar: uniFEB4
Encoding: 65204 65204 190
GlifName: uniF_E_B_4
Width: 1774
VWidth: 3807
GlyphClass: 2
Flags: HW
AnchorPoint: "Anchor-7" 818.934 -214.076 basechar 0
AnchorPoint: "Anchor-10" 917.609 1125.13 basechar 0
LayerCount: 2
Fore
SplineSet
-5 333 m 2
 69 333 l 2
 263 333 349 379 365 469 c 2
 387 581 l 5
 504 563 l 5
 489 477 l 2
 488 468 487 458 487 450 c 0
 487 372 548 333 668 333 c 0
 796 333 869 385 887 490 c 2
 908 603 l 5
 1029 585 l 5
 1017 498 l 2
 1016 488 1015 479 1015 470 c 0
 1015 379 1076 333 1199 333 c 0
 1326 333 1386 388 1389 512 c 2
 1392 616 l 5
 1509 616 l 5
 1514 516 l 2
 1520 394 1580 333 1754 333 c 2
 1780 333 l 2
 1807 333 1809 294 1809 217 c 2
 1809 114 l 2
 1809 38 1806 0 1780 0 c 2
 1755 0 l 2
 1585 0 1509 60 1459 149 c 1
 1393 60 1311 0 1191 0 c 0
 1069.58416188 0 981.463867188 57.21875 927 149 c 1
 851 57 763 -1 661 -1 c 0
 535 -1 445 58 393 147 c 1
 325 58 229 0 69 0 c 2
 -5 0 l 2
 -48 0 -50 38 -50 113 c 2
 -50 219 l 2
 -50 295 -48 333 -5 333 c 2
EndSplineSet
EndChar

StartChar: uniFEBA
Encoding: 65210 65210 196
GlifName: uniF_E_B_A_
Width: 2647
VWidth: 3808
GlyphClass: 2
Flags: HW
AnchorPoint: "Anchor-7" 636.427 -790.57 basechar 0
AnchorPoint: "Anchor-10" 2064.47 1296.94 basechar 0
LayerCount: 2
Fore
SplineSet
1653 0 m 2
 1524 0 l 2
 1428 0 1348 13 1292 40 c 1
 1286 -387 1029 -600 651 -600 c 0
 305 -600 93 -473 93 -170 c 0
 93 -46 129 98 200 261 c 1
 290 223 l 1
 253 131 235 50 235 -19 c 0
 235 -215 410 -289 642 -289 c 0
 871 -289 1066 -224 1165 -103 c 1
 1110 50 1044 199 967 324 c 1
 1090 530 l 2
 1113.36621094 568.943359375 1126.54882812 592.756835938 1152 550 c 128
 1161 535 1179 503 1206 454 c 8
 1252 370 1296 340 1420 339 c 1
 1671 709 1910 893 2139 893 c 0
 2348 893 2478 752 2478 533 c 0
 2478 458 2465 391 2439 333 c 1
 2656 333 l 2
 2681 333 2682 294 2682 217 c 6
 2682 114 l 6
 2682 38 2681 0 2656 0 c 2
 2553 0 l 2
 2394 0 2275 32 2194 97 c 1
 2054 32 1869 0 1653 0 c 2
2323 438 m 0
 2323 534 2216 588 2106 588 c 0
 1883 588 1716 449 1576 335 c 1
 1856 335 l 2
 2165 335 2323 369 2323 438 c 0
EndSplineSet
EndChar

StartChar: uniFEBB
Encoding: 65211 65211 197
GlifName: uniF_E_B_B_
Width: 1840
VWidth: 3808
GlyphClass: 2
Flags: HW
AnchorPoint: "Anchor-10" 1291.92 1280.47 basechar 0
AnchorPoint: "Anchor-7" 783.338 -228.584 basechar 0
LayerCount: 2
Fore
SplineSet
-5 333 m 2
 37 333 l 2
 224 333 320 393 323 513 c 2
 327 614 l 5
 444 614 l 5
 450 514 l 2
 455 406 533 348 686 339 c 1
 937 709 1177 893 1405 893 c 0
 1614 893 1744 752 1744 533 c 0
 1744 158 1410 0 919 0 c 2
 790 0 l 2
 604 0 472 56 391 149 c 1
 319 56 200 0 37 0 c 2
 -5 0 l 2
 -48 0 -50 38 -50 113 c 2
 -50 219 l 2
 -50 295 -48 333 -5 333 c 2
1589 438 m 0
 1589 534 1482 588 1372 588 c 0
 1149 588 982 449 842 335 c 1
 1122 335 l 2
 1431 335 1589 369 1589 438 c 0
EndSplineSet
EndChar

StartChar: uniFEBC
Encoding: 65212 65212 198
GlifName: uniF_E_B_C_
Width: 1919
VWidth: 3808
GlyphClass: 2
Flags: HW
AnchorPoint: "Anchor-7" 781.338 -229.584 basechar 0
AnchorPoint: "Anchor-10" 1289.92 1280.47 basechar 0
LayerCount: 2
Fore
SplineSet
-5 333 m 2
 37 333 l 2
 224 333 320 393 323 513 c 2
 327 614 l 5
 444 614 l 5
 450 514 l 2
 455 406 533 348 686 339 c 1
 937 709 1176 893 1405 893 c 0
 1614 893 1744 752 1744 533 c 0
 1744 458 1731 391 1705 333 c 1
 1925 333 l 2
 1950 333 1954 294 1954 217 c 2
 1954 114 l 2
 1954 38 1950 0 1925 0 c 2
 1818 0 l 2
 1659 0 1541 32 1460 97 c 1
 1320 32 1135 0 919 0 c 2
 790 0 l 2
 604 0 472 56 391 149 c 1
 319 56 200 0 37 0 c 2
 -5 0 l 2
 -48 0 -50 38 -50 113 c 2
 -50 219 l 2
 -50 295 -48 333 -5 333 c 2
1589 438 m 0
 1589 534 1482 588 1372 588 c 0
 1149 588 982 449 842 335 c 1
 1122 335 l 2
 1431 335 1589 369 1589 438 c 0
EndSplineSet
EndChar

StartChar: uniFEC2
Encoding: 65218 65218 204
GlifName: uniF_E_C_2
Width: 1681
VWidth: 3808
GlyphClass: 2
Flags: HW
AnchorPoint: "Anchor-10" 568.377 1634.21 basechar 0
AnchorPoint: "Anchor-7" 736.45 -238.796 basechar 0
LayerCount: 2
Fore
SplineSet
694 611 m 1
 864 799 1030 893 1170 893 c 0
 1379 893 1509 752 1509 533 c 0
 1509 458 1496 391 1470 333 c 1
 1690 333 l 2
 1715 333 1716 294 1716 217 c 2
 1716 114 l 2
 1716 38 1715 0 1690 0 c 2
 1583 0 l 2
 1424 0 1306 32 1225 97 c 1
 1085 32 899 1 684 0 c 2
 543 0 l 2
 473 0 414 16 362 52 c 0
 278 110 199 170 125 230 c 0
 82 265 61 290 61 307 c 0
 61 326 85 333 125 333 c 2
 448 335 l 1
 469 362 490 390 513 417 c 1
 506 733 486 1148 437 1358 c 1
 599 1529 l 2
 657 1589 676 1609 678 1504 c 2
 694 611 l 1
1354 438 m 0
 1354 534 1247 588 1137 588 c 0
 914 588 747 449 607 335 c 1
 887 335 l 2
 1196 335 1354 369 1354 438 c 0
EndSplineSet
EndChar

StartChar: uniFEC3
Encoding: 65219 65219 205
GlifName: uniF_E_C_3
Width: 1311
VWidth: 3808
GlyphClass: 2
Flags: HW
AnchorPoint: "Anchor-10" 268.146 1637.21 basechar 0
AnchorPoint: "Anchor-7" 460 -234.904 basechar 0
LayerCount: 2
Fore
SplineSet
-5 333 m 2
 155 335 l 1
 176 362 197 390 220 417 c 1
 213 733 193 1148 144 1358 c 1
 306 1529 l 2
 364 1589 383 1609 385 1504 c 2
 401 611 l 1
 571 799 737 893 877 893 c 0
 1086.19824219 893 1216.00585938 751.08984375 1216.00585938 532.517578125 c 0
 1216.00585938 157.903320312 881 0 391 0 c 2
 -5 0 l 2
 -48 0 -50 38 -50 113 c 2
 -50 219 l 2
 -50 295 -48 332 -5 333 c 2
1061 438 m 0
 1061 534 954 588 844 588 c 0
 621 588 454 449 314 335 c 1
 594 335 l 2
 903 335 1061 369 1061 438 c 0
EndSplineSet
EndChar

StartChar: uniFEC4
Encoding: 65220 65220 206
GlifName: uniF_E_C_4
Width: 1390
VWidth: 3808
GlyphClass: 2
Flags: HW
AnchorPoint: "Anchor-10" 268.146 1637.21 basechar 0
AnchorPoint: "Anchor-7" 472 -229.796 basechar 0
LayerCount: 2
Fore
SplineSet
-5 333 m 2
 155 335 l 1
 176 362 197 390 220 417 c 1
 213 733 193 1148 144 1358 c 1
 306 1529 l 2
 364 1589 383 1609 385 1504 c 2
 401 611 l 1
 571 799 737 893 877 893 c 4
 1086 893 1216 752 1216 533 c 4
 1216 458 1203 391 1177 333 c 5
 1398 333 l 6
 1423 333 1425 294 1425 217 c 6
 1425 114 l 6
 1425 38 1423 0 1398 0 c 6
 1291 0 l 6
 1132 0 1013 32 932 97 c 5
 792 32 607 0 391 0 c 2
 -5 0 l 2
 -48 0 -50 38 -50 113 c 2
 -50 219 l 2
 -50 295 -48 332 -5 333 c 2
1061 438 m 4
 1061 534 954 588 844 588 c 4
 621 588 454 449 314 335 c 1
 594 335 l 2
 903 335 1061 369 1061 438 c 4
EndSplineSet
EndChar

StartChar: uniFECA
Encoding: 65226 65226 212
GlifName: uniF_E_C_A_
Width: 1333
VWidth: 3802
GlyphClass: 2
Flags: HW
AnchorPoint: "Anchor-10" 711.062 1126.07 basechar 0
AnchorPoint: "Anchor-7" 654.792 -826.821 basechar 0
LayerCount: 2
Fore
SplineSet
750 874 m 0
 959 874 1075 824 1075 708 c 0
 1075 597 1000 502 852 421 c 1
 869 362 1006 333 1309 333 c 2
 1338 333 l 2
 1363 333 1368 282 1368 181 c 6
 1368 114 l 6
 1368 38 1363 0 1338 0 c 2
 1309 0 l 2
 957 0 772 134 725 382 c 1
 393 278 236 74 236 -91 c 0
 236 -290.822343438 515.605931929 -362 772 -362 c 0
 934 -362 1041 -343 1128 -327 c 0
 1185 -316 1220 -308 1189 -373 c 0
 1105 -549 964 -637 714 -637 c 0
 335 -637 94 -469 94 -130 c 0
 94 243 365 473 649 566 c 1
 612 611 509 664 339 665 c 1
 339 800 l 1
 414 849 551 874 750 874 c 0
EndSplineSet
EndChar

StartChar: uniFECB
Encoding: 65227 65227 213
GlifName: uniF_E_C_B_
Width: 1128
VWidth: 3802
GlyphClass: 2
Flags: HW
AnchorPoint: "Anchor-7" 496.566 -245.979 basechar 0
AnchorPoint: "Anchor-10" 560.49 1193.27 basechar 0
LayerCount: 2
Fore
SplineSet
-5 333 m 6
 271 333 l 1
 216 385 188 451 188 528 c 0
 188 736 361 975 598 975 c 0
 747 975 855 892 936 727 c 1
 882 663 l 1
 793 705 723 720 646 720 c 0
 535 720 338 646 338 542 c 0
 338 521 468 424 519 392 c 0
 532 384 546 380 562 382 c 0
 617 390 711 409 843 437 c 2
 988 468 l 2
 1038 478 1056 457 1036 416 c 2
 915 168 l 1
 601 54 352 0 67 0 c 2
 -5 0 l 6
 -48 0 -50 38 -50 113 c 6
 -50 219 l 6
 -50 295 -48 333 -5 333 c 6
EndSplineSet
EndChar

StartChar: uniFECC
Encoding: 65228 65228 214
GlifName: uniF_E_C_C_
Width: 1059
VWidth: 3804
GlyphClass: 2
Flags: HW
AnchorPoint: "Anchor-10" 553.643 1082.02 basechar 0
AnchorPoint: "Anchor-7" 563.281 -237.563 basechar 0
LayerCount: 2
Fore
SplineSet
-5 333 m 2
 67 333 l 2
 325 333 465 335 530 375 c 1
 469 466 365 535 216 553 c 1
 215 704 l 1
 343 750 462 774 606 774 c 0
 794 774 909 722 909 615 c 0
 909 545 864 465 772 376 c 1
 840 335 922 333 1044 333 c 2
 1064 333 l 2
 1089 333 1094 276 1094 161 c 6
 1094 154 l 6
 1094 51 1089 0 1064 0 c 2
 1000 0 l 2
 830 0 726 46 626 157 c 1
 495 46 306 0 121 0 c 2
 -5 0 l 2
 -48 0 -50 38 -50 113 c 2
 -50 219 l 2
 -50 295 -48 333 -5 333 c 2
EndSplineSet
EndChar

StartChar: uniFEDA
Encoding: 65242 65242 228
GlifName: uniF_E_D_A_
Width: 1967
VWidth: 3767
GlyphClass: 2
Flags: HW
AnchorPoint: "Anchor-7" 876.157 -267.146 basechar 0
AnchorPoint: "Anchor-10" 976.84 1455.95 basechar 0
LayerCount: 2
Fore
SplineSet
1120 1287 m 0
 1126 1288 1132 1288 1137 1288 c 0
 1158 1288 1172 1281 1172 1263 c 0
 1172 1258 1171 1252 1169 1246 c 2
 1132 1140 l 1
 1131 1137 l 1
 1127 1137 l 2
 960 1121 881 1087 881 1039 c 0
 881 1013 928 989 1031 971 c 0
 1142 952 1200 886 1200 775 c 0
 1200 624 1073 551 927 551 c 0
 842 551 764 563 694 586 c 2
 691 588 l 1
 691 591 l 1
 705 732 l 1
 706 739 l 1
 712 737 l 2
 781 712 854 700 929 700 c 0
 1036 700 1103 724 1103 773 c 0
 1103 799 1063 824 969 844 c 0
 853 868 794 938 794 1049 c 0
 794 1213 952 1267 1120 1287 c 0
1768 605 m 2
 1771 397 1763 333 1929 333 c 2
 1973 333 l 2
 1998 333 2002 276 2002 161 c 6
 2002 154 l 6
 2002 51 1998 0 1973 0 c 2
 1930 0 l 2
 1779 0 1708 72 1663 190 c 1
 1535 -20 1275 -57 831 -57 c 0
 352 -57 97 55 97 396 c 0
 97 521 136 639 213 755 c 1
 304 718 l 1
 268 628 250 560 250 509 c 0
 250 334 447 275 850 275 c 0
 1260 275 1585 277 1585 542 c 0
 1585 860 1567 1111 1518 1358 c 1
 1680 1529 l 2
 1737 1590 1758 1609 1759 1504 c 2
 1768 605 l 2
EndSplineSet
EndChar

StartChar: uniFEDB
Encoding: 65243 65243 229
GlifName: uniF_E_D_B_
Width: 957
VWidth: 3808
GlyphClass: 2
Flags: HW
AnchorPoint: "Anchor-10" 232.813 1528.15 basechar 0
AnchorPoint: "Anchor-7" 340.972 -280.152 basechar 0
LayerCount: 2
Fore
SplineSet
-5 333 m 6
 138 333 l 2
 326 333 577 335 577 451 c 0
 577 544 238 800 45 940 c 0
 26 954 16 978 16 997 c 0
 16 1001 17 1006 18 1010 c 2
 76 1204 l 2
 82 1225 93 1238 105 1243 c 2
 871 1568 l 2
 897 1579 902 1568 897 1539 c 2
 860 1319 l 1
 280 1078 l 1
 588 830 725 611 725 474 c 0
 725 171 529 0 138 0 c 2
 -5 0 l 6
 -48 0 -50 38 -50 113 c 6
 -50 219 l 6
 -50 295 -48 333 -5 333 c 6
EndSplineSet
EndChar

StartChar: uniFEDC
Encoding: 65244 65244 230
GlifName: uniF_E_D_C_
Width: 1251
VWidth: 3808
GlyphClass: 2
Flags: HW
AnchorPoint: "Anchor-10" 179.4 1589.83 basechar 0
AnchorPoint: "Anchor-7" 340.972 -280.152 basechar 0
LayerCount: 2
Fore
SplineSet
-5 333 m 2
 138 333 l 2
 326 333 577 335 577 451 c 0
 577 504 238 800 45 940 c 0
 26 954 16 978 16 997 c 0
 16 1001 17 1006 18 1010 c 2
 76 1204 l 2
 82 1225 93 1238 105 1243 c 2
 871 1568 l 2
 897 1579 902 1568 897 1539 c 2
 860 1319 l 1
 280 1078 l 1
 543 827 675.215948619 697.201548483 790 574 c 0
 940 413 1101 333 1234 333 c 2
 1257 333 l 2
 1284 333 1286 294 1286 217 c 6
 1286 114 l 6
 1286 38 1283 0 1257 0 c 2
 1234 0 l 2
 1019 0 856 114.059570312 708 331.059570312 c 1
 652.696896285 117.784803981 463 0 138 0 c 2
 -5 0 l 2
 -48 0 -50 38 -50 113 c 2
 -50 219 l 2
 -50 295 -48 333 -5 333 c 2
EndSplineSet
EndChar

StartChar: uniFEDE
Encoding: 65246 65246 232
GlifName: uniF_E_D_E_
Width: 1475
VWidth: 3808
GlyphClass: 2
Flags: HW
AnchorPoint: "Anchor-7" 646.427 -790.57 basechar 0
AnchorPoint: "Anchor-10" 596.527 1034.82 basechar 0
LayerCount: 2
Fore
SplineSet
1235 1504 m 2
 1254 510 l 2
 1256.25543987 392.004882653 1307 333 1457 333 c 2
 1480 333 l 2
 1507 333 1510 294 1510 217 c 6
 1510 114 l 6
 1510 38 1507 0 1480 0 c 2
 1458 0 l 2
 1356 0 1306 21 1260 63 c 1
 1261 18 l 2
 1273 -388 994 -600 625 -600 c 0
 289 -600 98 -464 98 -161 c 0
 98 -43 134 98 205 261 c 1
 295 223 l 1
 262 140 240 74 240 -19 c 0
 240 -213 398 -288 638 -288 c 0
 875 -288 1034 -234 1115 -127 c 1
 1072 626 1031 1137 994 1358 c 1
 1156 1529 l 2
 1213.41605839 1589.60583942 1233.90625 1609.47949219 1235 1504 c 2
EndSplineSet
EndChar

StartChar: uniFEDF
Encoding: 65247 65247 233
GlifName: uniF_E_D_F_
Width: 569
VWidth: 3767
GlyphClass: 2
Flags: HW
AnchorPoint: "Anchor-7" 190.901 -216.037 basechar 0
AnchorPoint: "Anchor-10" 295.792 1638.77 basechar 0
LayerCount: 2
Fore
SplineSet
-5 333 m 6
 66 333 l 2
 225 333 263 350 263 508 c 0
 263 613.616210938 207.721679688 1160.49804688 168 1358 c 1
 330 1529 l 2
 387.416015625 1589.60546875 405 1609 409 1504 c 2
 445 569 l 2
 446.116210938 540.004882812 448 512 448 486 c 0
 448 161 370 0 66 0 c 2
 -5 0 l 6
 -48 0 -50 38 -50 113 c 6
 -50 219 l 6
 -50 295 -48 333 -5 333 c 6
EndSplineSet
EndChar

StartChar: uniFEE0
Encoding: 65248 65248 234
GlifName: uniF_E_E_0
Width: 647
VWidth: 3767
GlyphClass: 2
Flags: HW
AnchorPoint: "Anchor-10" 304.953 1629.44 basechar 0
AnchorPoint: "Anchor-7" 251.019 -201.037 basechar 0
LayerCount: 2
Fore
SplineSet
-5 333 m 2
 66 333 l 2
 202 333 269 400 269 539 c 0
 269 693.56368577 243.735351562 1092.27050781 201 1358 c 1
 363 1529 l 2
 420.442335766 1589.63357664 440.905814714 1609.47946167 442 1504 c 2
 452 540 l 2
 454 374 468 333 610 333 c 2
 652 333 l 2
 679 333 682 294 682 217 c 6
 682 114 l 6
 682 38 679 0 652 0 c 2
 611 0 l 2
 481 0 413 55 348 146 c 1
 272 55 178 0 66 0 c 2
 -5 0 l 2
 -48 0 -50 38 -50 113 c 2
 -50 219 l 2
 -50 295 -48 333 -5 333 c 2
EndSplineSet
EndChar

StartChar: uniFEE2
Encoding: 65250 65250 236
GlifName: uniF_E_E_2
Width: 1235
VWidth: 3845
GlyphClass: 2
Flags: HW
AnchorPoint: "Anchor-10" 651.47 1032.19 basechar 0
AnchorPoint: "Anchor-7" 214.624 -829.684 basechar 0
LayerCount: 2
Fore
SplineSet
1240 0 m 2
 1195 -0 l 2
 1133 0 1091 13 1037 57 c 1
 996 -139 893 -248 761 -248 c 0
 566 -248 500 -102 499 124 c 2
 499 236 l 1
 378 198 298 147 262 87 c 1
 299 -400 l 2
 300 -409 300 -418 300 -427 c 0
 300 -540 248 -654 145 -768 c 0
 137 -777 130 -781 125 -781 c 0
 117 -781 113 -770 112 -746 c 2
 96 -256 l 2
 94 -209 94 -165 94 -124 c 0
 94 117 104 229 238 366 c 0
 316 446 413 492 530 506 c 1
 555 620 572 679 582 680 c 0
 590 681 604 673 624 658 c 2
 886 461 l 2
 1026 356 1123 333 1227 333 c 2
 1240 333 l 2
 1267 333 1270 294 1270 217 c 6
 1270 114 l 6
 1270 38 1267 0 1240 0 c 2
639 201 m 0
 639 85 675 8 787 8 c 0
 827.829480044 8 893.018994642 44.7490007368 893.018994642 101.576907556 c 0
 893.018994642 125.591124628 889.931743391 149.811971355 837 186 c 0
 739 253 647 311 643 314 c 1
 640 275 639 231 639 201 c 0
EndSplineSet
EndChar

StartChar: uniFEE3
Encoding: 65251 65251 237
GlifName: uniF_E_E_3
Width: 1031
VWidth: 3811
GlyphClass: 2
Flags: HW
AnchorPoint: "Anchor-7" 517.225 -257.984 basechar 0
AnchorPoint: "Anchor-10" 581.194 1037.38 basechar 0
LayerCount: 2
Fore
SplineSet
-5 333 m 6
 32 333 l 2
 166 333 256 353 302 433 c 0
 384 571 493 785 658 785 c 0
 827 785 948 574 948 358 c 0
 948 157.548117718 852.089170962 2 682 2 c 0
 574.349768636 2 448.580879329 73.9034829645 340 144 c 1
 269 38 167 0 24 0 c 2
 -5 0 l 6
 -48 0 -50 38 -50 113 c 6
 -50 219 l 6
 -50 295 -48 333 -5 333 c 6
729 306 m 0
 766 306 803 324 803 361 c 0
 803 448 670 539 620 539 c 0
 545 539 496 473 459 418 c 1
 580 343 670 306 729 306 c 0
EndSplineSet
EndChar

StartChar: uniFEE4
Encoding: 65252 65252 238
GlifName: uniF_E_E_4
Width: 1124
VWidth: 3811
GlyphClass: 2
Flags: HW
AnchorPoint: "Anchor-7" 492.041 -296.178 basechar 0
AnchorPoint: "Anchor-10" 581.194 986.32 basechar 0
LayerCount: 2
Fore
SplineSet
-5 333 m 2
 42 333 l 2
 148 333 260 335 298 394 c 0
 375 513 468 679 599 679 c 0
 737 679 825 553 912 393 c 0
 934 353 986 333 1108 333 c 2
 1129 333 l 2
 1156 333 1159 294 1159 217 c 6
 1159 113 l 6
 1159 38 1156 0 1129 0 c 2
 1109 0 l 2
 1030 0 962 40 881 100 c 1
 830 13 772 -67 656 -67 c 0
 538 -67 414 13 317 73 c 1
 235 24 144 0 45 0 c 2
 -5 0 l 2
 -48 0 -50 38 -50 113 c 2
 -50 219 l 2
 -50 295 -48 333 -5 333 c 2
702 239 m 0
 735 239 775 251 775 285 c 0
 775 336 657 446 587 446 c 0
 528 446 477 411 433 342 c 1
 553 273 643 239 702 239 c 0
EndSplineSet
EndChar

StartChar: uniFEEA
Encoding: 65258 65258 244
GlifName: uniF_E_E_A_
Width: 1039
VWidth: 3794
GlyphClass: 2
Flags: HW
AnchorPoint: "Anchor-7" 443.352 -215.97 basechar 0
AnchorPoint: "Anchor-10" 598.442 1318.31 basechar 0
LayerCount: 2
Fore
SplineSet
1043 0 m 2
 1022 0 l 2
 865 0 756 78 686 233 c 5
 549 151 l 1
 344 157 116 178 101 271 c 0
 98 292 97 322 97 363 c 0
 97 629 240 743 538 883 c 1
 503 1037 l 1
 615 1137 l 2
 648 1167 660 1175 671 1123 c 2
 807 492 l 2
 830 386 915 333 1022 333 c 2
 1043 333 l 2
 1070 333 1074 294 1074 217 c 2
 1074 114 l 2
 1074 38 1069 0 1043 0 c 2
577 706 m 1
 422 656 264 585 264 511 c 0
 264 454 385 447 530 447 c 0
 567 447 602 447 634 449 c 1
 577 706 l 1
EndSplineSet
EndChar

StartChar: uniFEEB
Encoding: 65259 65259 245
GlifName: uniF_E_E_B_
Width: 1221
VWidth: 3802
GlyphClass: 2
Flags: HW
AnchorPoint: "Anchor-10" 506.665 1370.8 basechar 0
AnchorPoint: "Anchor-7" 526.996 -230.546 basechar 0
LayerCount: 2
Fore
SplineSet
-5 333 m 6
 249 333 l 1
 187 385 167 442 167 524 c 0
 167 644 232 759 353 845 c 1
 255 877 l 1
 339 1137 l 1
 718 963 l 2
 1015 827 1132 677 1132 478 c 0
 1132 258 1023 56 926 56 c 0
 828 56 678 85 532 134 c 1
 350 38 177 0 49 0 c 2
 -5 0 l 6
 -48 0 -50 38 -50 113 c 6
 -50 219 l 6
 -50 295 -48 333 -5 333 c 6
969 316 m 1
 985 346 999 407 999 453 c 0
 999 532 893 581 769 639 c 1
 769.033760403 636.569250972 769.051564099 634.108868059 769.051564099 631.620274981 c 0
 769.051564099 560.395498393 754.467969763 466.062844925 682 382 c 1
 794 347 904 317 969 316 c 1
634 632 m 0
 634 696 578 742 495 742 c 0
 424 742 318 678 318 583 c 0
 318 519 425 465 533 439 c 1
 590 469 634 545 634 632 c 0
EndSplineSet
EndChar

StartChar: uniFEEC
Encoding: 65260 65260 246
GlifName: uniF_E_E_C_
Width: 1016
VWidth: 3830
GlyphClass: 2
Flags: HW
AnchorPoint: "Anchor-10" 483.603 1154.79 basechar 0
AnchorPoint: "Anchor-7" 585.778 -775.076 basechar 0
LayerCount: 2
Fore
SplineSet
-5 333 m 2
 222 333 l 1
 236 476 354 943 492 943 c 0
 577 943 782 687 782 485 c 0
 782 271 584 31 356 2 c 1
 381 -70 478 -187 593 -243 c 1
 662 154 790 333 988 333 c 2
 1021 333 l 2
 1048 333 1051 294 1051 217 c 6
 1051 114 l 6
 1051 38 1048 0 1021 0 c 2
 989 0 l 2
 644 0 713 -198 817 -418 c 1
 642 -569 l 1
 413 -406 268 -249 227 0 c 1
 -5 0 l 2
 -48 0 -50 38 -50 113 c 2
 -50 219 l 2
 -50 295 -48 333 -5 333 c 2
342 334 m 1
 545 342 642 354 642 434 c 0
 642 466 568 560 459 636 c 1
 383 527 360 418 342 334 c 1
EndSplineSet
EndChar

StartChar: uniFEEE
Encoding: 65262 65262 248
GlifName: uniF_E_E_E_
Width: 843
VWidth: 3836
GlyphClass: 2
Flags: HW
AnchorPoint: "Anchor-7" 341.096 -713.978 basechar 0
AnchorPoint: "Anchor-10" 414.667 1030.67 basechar 0
LayerCount: 2
Fore
SplineSet
848 0 m 2
 723 0 l 1
 684 -201 620 -354 531 -460 c 0
 472 -530 431 -551 304 -551 c 0
 223 -551 -45 -524 -46 -473 c 0
 -46.1318359375 -466.29296875 -28 -449 1 -440 c 0
 266 -353 456 -208 573 -5 c 1
 461 -5 l 2
 249 -5 146 69 146 227 c 0
 146 433 234 732 431 732 c 0
 621 732 709 520 726 333 c 1
 848 333 l 2
 875 333 878 294 878 217 c 2
 878 114 l 2
 878 38 875 0 848 0 c 2
588 322 m 1
 541 426 480 489 403 489 c 0
 332 489 267 421 267 368 c 0
 267 336 333 320 466 320 c 0
 515 320 556 321 588 322 c 1
EndSplineSet
EndChar

StartChar: uniFEFB
Encoding: 65275 65275 261
GlifName: uniF_E_F_B_
Width: 1254
VWidth: 3767
GlyphClass: 3
Flags: HW
AnchorPoint: "Anchor-9" 1003.97 1638.48 baselig 0
AnchorPoint: "Anchor-9" 223.848 1607.87 baselig 1
AnchorPoint: "Anchor-6" 316.398 -243.901 baselig 1
AnchorPoint: "Anchor-6" 1000.99 -196.011 baselig 0
LayerCount: 2
Fore
SplineSet
1101 1504 m 2
 1128.90136719 643.822265625 l 2
 1129.25214099 633.008178633 1129.53222656 622.837890625 1129.53222656 612.543945312 c 0
 1129.53222656 207.458007812 878.944335938 1.1572265625 426.751953125 1.1572265625 c 0
 403.356445312 1.1572265625 375.425091645 9.40177015511 344.474609375 24.8642578125 c 2
 98 148 l 2
 45.8623046875 174.783203125 24.2249688389 224.361196891 115.463867188 230.825195312 c 0
 372 249 533 290 649 336 c 1
 563.442382812 606.055664062 426.889648438 900.77734375 122.66796875 1248.33203125 c 1
 255.206054688 1518.4921875 l 1
 550.715769691 1116.57263756 710.489257812 728.802734375 792.734375 404.108398438 c 1
 897.334960938 456.828125 950.415039062 513.284179688 950.415039062 603.854492188 c 0
 950.415039062 792.065429688 899.37109375 1163.14453125 860 1358 c 1
 1022 1529 l 2
 1079.41605839 1589.60583942 1098 1609 1101 1504 c 2
EndSplineSet
LCarets2: 1 0
Ligature2: "'rlig' Required Ligatures in Arabic lookup 16 subtable" uniFEDF uniFE8E
EndChar

StartChar: uniFEFC
Encoding: 65276 65276 262
GlifName: uniF_E_F_C_
Width: 1325
VWidth: 3767
GlyphClass: 3
Flags: HW
AnchorPoint: "Anchor-9" 1003.97 1638.48 baselig 0
AnchorPoint: "Anchor-9" 223.848 1607.87 baselig 1
AnchorPoint: "Anchor-6" 1000.99 -196.011 baselig 0
AnchorPoint: "Anchor-6" 316.398 -243.901 baselig 1
LayerCount: 2
Fore
SplineSet
1101 1504 m 2
 1134 536 l 2
 1138 412 1171 333 1291 333 c 2
 1330 333 l 2
 1355 333 1360 276 1360 161 c 6
 1360 154 l 6
 1360 51 1355 0 1330 0 c 2
 1291 0 l 2
 1090 0 1004 152 989 391 c 1
 840 170 659 1 426 1 c 0
 394 1 361 13 325 31 c 2
 85 151 l 2
 45 171 34 217 114 227 c 0
 252 244 478 285 630 378 c 1
 562 580 432 883 124 1252 c 1
 255 1519 l 1
 545 1121 698 737 768 467 c 1
 870 546 940 638 940 687 c 0
 940 860 906 1098 860 1358 c 1
 1022 1529 l 2
 1079 1590 1097 1609 1101 1504 c 2
EndSplineSet
LCarets2: 1 0
Ligature2: "'rlig' Required Ligatures in Arabic lookup 16 subtable" uniFEE0 uniFE8E
EndChar

StartChar: arabic_dot
Encoding: 65536 -1 263
GlifName: arabic_dot
Width: 237
VWidth: 3297
GlyphClass: 2
Flags: HW
LayerCount: 2
Fore
SplineSet
118.072265625 295.35546875 m 1
 284.001953125 129.42578125 l 1
 118.072265625 -36.505859375 l 1
 -47.859375 129.42578125 l 1
 118.072265625 295.35546875 l 1
EndSplineSet
EndChar

StartChar: arabic_2dots
Encoding: 65537 -1 264
GlifName: arabic_2dots
Width: 622
VWidth: 3297
GlyphClass: 2
Flags: HW
LayerCount: 2
Fore
SplineSet
303.815429688 125.071289062 m 1
 145.204101562 -33.5400390625 l 1
 -13.404296875 125.071289062 l 1
 145.204101562 283.6796875 l 1
 303.815429688 125.071289062 l 1
319.706054688 125.071289062 m 1
 478.315429688 283.6796875 l 1
 636.92578125 125.071289062 l 1
 478.315429688 -33.5400390625 l 1
 319.706054688 125.071289062 l 1
EndSplineSet
EndChar

StartChar: arabic_3dots
Encoding: 65538 -1 265
GlifName: arabic_3dots
Width: 600
VWidth: 3297
GlyphClass: 2
Flags: HW
LayerCount: 2
Fore
SplineSet
300 505.389648438 m 1
 450.028320312 355.359375 l 1
 300 205.328125 l 1
 149.971679688 355.359375 l 1
 300 505.389648438 l 1
470.66015625 249.309570312 m 1
 615.689453125 99.279296875 l 1
 470.66015625 -50.7509765625 l 1
 320.631835938 99.279296875 l 1
 470.66015625 249.309570312 l 1
134.33984375 249.309570312 m 1
 284.369140625 99.279296875 l 1
 134.33984375 -50.7509765625 l 1
 -15.689453125 99.279296875 l 1
 134.33984375 249.309570312 l 1
EndSplineSet
EndChar

StartChar: arabic_3dots_a
Encoding: 65539 -1 266
GlifName: arabic_3dots_a
Width: 647
VWidth: 3297
GlyphClass: 2
Flags: HW
LayerCount: 2
Fore
SplineSet
324 -267 m 1
 174 -117 l 1
 324 33 l 1
 474 -117 l 1
 324 -267 l 1
495 -11 m 1
 345 139 l 1
 495 289 l 1
 640 139 l 1
 495 -11 l 1
158 -11 m 5
 8 139 l 5
 158 289 l 5
 308 139 l 5
 158 -11 l 5
EndSplineSet
EndChar

StartChar: uni066E.fina
Encoding: 65540 -1 267
GlifName: uni066E_.fina
Width: 1968
VWidth: 3808
GlyphClass: 2
Flags: HW
AnchorPoint: "Anchor-10" 1045.81 1840.22 basechar 0
AnchorPoint: "Anchor-7" 975.431 -366.258 basechar 0
LayerCount: 2
Fore
SplineSet
1681 157 m 1
 1529 13 1215 -57 832 -57 c 0
 351.8671875 -57 96.98828125 55.1259765625 96.98828125 396.009765625 c 0
 96.98828125 520.932617188 136.177734375 638.754882812 213 755 c 1
 304 718 l 1
 267.67578125 628.19921875 249.99609375 560.041015625 249.99609375 508.694335938 c 0
 249.99609375 332.71484375 449.002929688 275 855 275 c 0
 1364 275 1618.84179688 352.977539062 1623 511 c 2
 1626 615 l 5
 1743 615 l 5
 1749 515 l 2
 1752.63052913 441.784329143 1755.89492655 390.536561267 1800 361.478238349 c 0
 1828.78524941 342.513275651 1874.96675589 333 1950 333 c 2
 1973 333 l 2
 2000 333 2003 294 2003 217 c 2
 2003 114 l 2
 2003 38 2000 0 1973 0 c 2
 1951 0 l 2
 1823 0 1739 61 1681 157 c 1
EndSplineSet
EndChar

StartChar: uni06A1.fina
Encoding: 65543 -1 268
GlifName: uni06A_1.fina
Width: 1976
VWidth: 3803
GlyphClass: 2
Flags: HW
AnchorPoint: "Anchor-10" 769.559 2023.43 basechar 0
AnchorPoint: "Anchor-7" 960.034 -452.74 basechar 0
LayerCount: 2
Fore
SplineSet
1537 676 m 0
 1481 676 1373 594 1373 537 c 0
 1373 469 1509 396 1537 396 c 0
 1585 396 1688 486 1688 540 c 0
 1688 604 1582 676 1537 676 c 0
1523 107 m 1
 1302 -13 1072 -57 832 -57 c 0
 352 -57 97 55 97 396 c 0
 97 521 136 639 213 755 c 1
 304 718 l 1
 268 628 250 560 250 509 c 0
 250 333 449 275 855 275 c 0
 1016 275 1147 280 1315 321 c 1
 1247 401 1233 503 1233 576 c 0
 1233 660 1256 738 1303 809 c 0
 1372 912 1451 964 1540 964 c 0
 1646 964 1728 904 1789 785 c 0
 1821 722 1837 661 1837 602 c 0
 1837 505 1804 406 1747 340 c 1
 1812 334 1836 333 1939 333 c 2
 1981 333 l 2
 2006 333 2011 276 2011 161 c 6
 2011 154 l 6
 2011 51 2006 0 1981 0 c 2
 1939 0 l 2
 1807 0 1650 15 1523 107 c 1
EndSplineSet
EndChar

StartChar: uni06A1.init
Encoding: 65544 -1 269
GlifName: uni06A_1.init
Width: 789
VWidth: 3836
GlyphClass: 2
Flags: HW
AnchorPoint: "Anchor-10" 495.608 2086.05 basechar 0
AnchorPoint: "Anchor-7" 399.106 -362.532 basechar 0
LayerCount: 2
Fore
SplineSet
-5 333 m 2
 291 334 l 2
 478 335 571 373 571 470 c 1
 520 455 451 445 362 445 c 0
 197 445 119 520 119 676 c 0
 119 889.801757812 215.638671875 1115.00878906 397.103515625 1115.00878906 c 0
 635.131835938 1115.00878906 712 787.622070312 712 538 c 0
 712 154 598 0 226 0 c 2
 -5 0 l 2
 -48 0 -50 38 -50 113 c 2
 -50 219 l 2
 -50 295 -48 333 -5 333 c 2
250 735 m 0
 250 699 339 695 381 695 c 0
 436 695 486 704 560 722 c 1
 504 818 454 866 382 866 c 0
 313.885742188 866 250 808.048828125 250 735 c 0
EndSplineSet
EndChar

StartChar: uni06A1.medi
Encoding: 65545 -1 270
GlifName: uni06A_1.medi
Width: 965
VWidth: 3803
GlyphClass: 2
Flags: HW
AnchorPoint: "Anchor-10" 493.605 1522.67 basechar 0
AnchorPoint: "Anchor-7" 466.796 -194.829 basechar 0
LayerCount: 2
Fore
SplineSet
-5 333 m 2
 102 334 l 2
 215 335 241 334 304 341 c 1
 236 421 222 503 222 576 c 0
 222 660 245 738 292 809 c 0
 361 912 440 964 529 964 c 0
 635 964 717 904 778 785 c 0
 810 722 826 661 826 602 c 0
 826 504.826244379 792.533203125 405.955078125 736 340 c 1
 801 334 825 333 928 333 c 2
 970 333 l 2
 995 333 1000 276 1000 161 c 6
 1000 154 l 6
 1000 51 995 0 970 0 c 2
 928 0 l 2
 796 0 646 16 519 107 c 1
 382 16 230 0 82 0 c 2
 -5 0 l 2
 -48 0 -50 38 -50 113 c 2
 -50 219 l 2
 -50 295 -48 333 -5 333 c 2
526 676 m 0
 470 676 362 594 362 537 c 0
 362 469.15234375 498.21822836 396 526 396 c 0
 574.030973523 396 677 485.734375 677 540 c 0
 677 604 571 676 526 676 c 0
EndSplineSet
EndChar

StartChar: uni066F.fina
Encoding: 65546 -1 271
GlifName: uni066F_.fina
Width: 1432
VWidth: 3836
GlyphClass: 2
Flags: HW
AnchorPoint: "Anchor-7" 428.256 -882.609 basechar 0
LayerCount: 2
Fore
SplineSet
1154 322 m 1
 1107 426 1046 489 969 489 c 0
 898 489 833 421 833 368 c 0
 833 336 899 320 1032 320 c 0
 1081 320 1122 321 1154 322 c 1
1164 -127 m 1
 1167.40408072 -109.979596404 1169.18943659 -87.9863914531 1169.18943659 -65.7914519648 c 0
 1169.18943659 -44.2667895534 1167.51028632 -22.5523932029 1164 -5 c 1
 1027 -5 l 2
 815 -5 712 69 712 227 c 0
 712 433 800 732 997 732 c 0
 1187 732 1275 520 1292 333 c 1
 1438 333 l 2
 1463 333 1467 279 1467 171 c 2
 1467 164 l 2
 1467 55 1463 0 1438 0 c 2
 1288 0 l 17
 1285.48380731 -369.88032563 1045.20524285 -599 653 -599 c 0
 314 -599 97 -476 97 -161 c 0
 97 -43 133 97 204 261 c 1
 294 223 l 1
 259 135 239 76 239 -19 c 0
 239 -215 404 -287 659 -287 c 0
 924 -287 1089 -233 1164 -127 c 1
EndSplineSet
EndChar

StartChar: arabic_gaf_bar
Encoding: 65550 -1 272
GlifName: arabic_gaf_bar
Width: 801
VWidth: 3184
GlyphClass: 2
Flags: HW
LayerCount: 2
Fore
SplineSet
788.625 2207.2265625 m 2
 766.747070312 2112.10351562 l 1
 63.1748046875 1815.74707031 l 1
 106.1328125 1936.25585938 l 1
 773.684570312 2223.03710938 l 2
 786.311523438 2228.59375 791.291992188 2223.32324219 788.625 2207.2265625 c 2
EndSplineSet
EndChar

StartChar: guillemotleft
Encoding: 171 171 282
GlifName: guillemotleft
Width: 797
VWidth: 3431
Flags: HW
LayerCount: 2
Fore
SplineSet
90 506 m 4
 90 734.811523438 186.319335938 901.350585938 340.778320312 993.190429688 c 6
 343.533203125 994.828125 l 5
 346.661132812 995.5234375 l 6
 358.353515625 998.122070312 370.614257812 993.552734375 378.1640625 985.954101562 c 4
 383.7890625 980.291992188 387.37109375 973.979492188 390.888671875 966.944335938 c 4
 394.223632812 960.274414062 395.3125 947.783203125 392.090820312 941.272460938 c 4
 310.305664062 805.616210938 273 662.650390625 273 498 c 4
 273 334.454101562 315.69140625 187.895507812 401.001953125 54.5361328125 c 4
 411.591796875 36.88671875 400.602539062 20.0322265625 391.015625 11.814453125 c 4
 383.840820312 5.6650390625 372.4453125 -3.3505859375 356.711914062 -0.7275390625 c 6
 353.774414062 -0.23828125 l 5
 351.106445312 1.0859375 l 6
 200.532226562 75.83984375 90 292.225585938 90 506 c 4
707.318359375 941.686523438 m 4
 629.00390625 809.19140625 589 660.423828125 589 498 c 4
 589 336.143554688 630.599609375 188.063476562 712.76953125 56.501953125 c 4
 727.323242188 37.498046875 716.875 20.265625 707.015625 11.814453125 c 4
 698.041992188 4.123046875 685.791015625 -3.2412109375 670.711914062 -0.7275390625 c 6
 667.745117188 -0.2333984375 l 5
 665.055664062 1.111328125 l 6
 515.475585938 75.9013671875 405 293.225585938 405 506 c 4
 405 734.965820312 503.431640625 901.416992188 657.778320312 993.190429688 c 6
 660.533203125 994.828125 l 5
 663.661132812 995.5234375 l 6
 688.749023438 1001.09863281 701.177734375 977.33203125 705.424804688 965.860351562 c 4
 707.165039062 962.1484375 713.041015625 956.119140625 707.318359375 941.686523438 c 4
EndSplineSet
EndChar

StartChar: guillemotright
Encoding: 187 187 283
GlifName: guillemotright
Width: 797
VWidth: 3431
Flags: HW
LayerCount: 2
Fore
SplineSet
707 506 m 0
 707 292.225585938 596.467773438 75.83984375 445.893554688 1.0859375 c 2
 443.225585938 -0.23828125 l 1
 440.288085938 -0.7275390625 l 2
 424.5546875 -3.3505859375 413.159179688 5.6650390625 405.984375 11.814453125 c 0
 396.397460938 20.0322265625 385.408203125 36.88671875 395.998046875 54.5361328125 c 0
 481.309570312 187.896484375 524 334.454101562 524 498 c 0
 524 662.702148438 485.877929688 806.971679688 404.909179688 941.272460938 c 0
 398.986328125 953.243164062 403.262695312 961.247070312 406.111328125 966.944335938 c 0
 409.62890625 973.979492188 413.2109375 980.291992188 418.8359375 985.954101562 c 0
 426.385742188 993.552734375 438.646484375 998.122070312 450.338867188 995.5234375 c 2
 453.466796875 994.828125 l 1
 456.221679688 993.190429688 l 2
 610.6796875 901.350585938 707 734.811523438 707 506 c 0
89.681640625 941.686523438 m 0
 83.6103515625 956.998046875 91.2763671875 965.223632812 91.5751953125 965.860351562 c 0
 96.716796875 979.747070312 109.192382812 1000.88964844 133.338867188 995.5234375 c 2
 136.466796875 994.828125 l 1
 139.221679688 993.190429688 l 2
 293.568359375 901.416992188 392 734.965820312 392 506 c 0
 392 293.225585938 281.524414062 75.9013671875 131.944335938 1.111328125 c 2
 129.254882812 -0.2333984375 l 1
 126.288085938 -0.7275390625 l 2
 111.208984375 -3.2412109375 98.9580078125 4.123046875 89.984375 11.814453125 c 0
 78.6689453125 21.513671875 71.74609375 40.19921875 84.23046875 56.501953125 c 0
 167.243164062 189.411132812 208 336.194335938 208 498 c 0
 208 660.423828125 167.99609375 809.19140625 89.681640625 941.686523438 c 0
EndSplineSet
EndChar

StartChar: NameMe.304
Encoding: 65562 -1 292
GlifName: N_ameM_e.302
Width: 647
VWidth: 3767
Flags: HW
LayerCount: 2
Fore
SplineSet
-5 333 m 2
 66 333 l 2
 202 333 269 400 269 539 c 0
 269 693.56368577 243.735351562 842.270507812 201 1108 c 1
 363 1279 l 2
 385.786132812 1304.16015625 406.534179688 1324.81152344 420.041015625 1324.81152344 c 0
 434.987304688 1324.81152344 441.515625 1300.6484375 442 1254 c 2
 452 540 l 2
 454 374 468 333 610 333 c 2
 652 333 l 2
 679 333 682 294 682 217 c 6
 682 114 l 6
 682 38 679 0 652 0 c 2
 611 0 l 2
 481 0 413 55 348 146 c 1
 272 55 178 0 66 0 c 2
 -5 0 l 2
 -48 0 -50 38 -50 113 c 2
 -50 219 l 2
 -50 295 -48 333 -5 333 c 2
EndSplineSet
EndChar

StartChar: NameMe.303
Encoding: 65563 -1 293
GlifName: N_ameM_e.303
Width: 569
VWidth: 3767
Flags: HW
LayerCount: 2
Fore
SplineSet
-5 333 m 6
 66 333 l 2
 225 333 263 350 263 508 c 0
 263 613.616210938 207.721679688 1110.49804688 168 1308 c 1
 330 1479 l 2
 387.416015625 1539.60546875 405 1559 409 1454 c 2
 445 569 l 2
 446.116210938 540.004882812 448 512 448 486 c 0
 448 161 370 0 66 0 c 2
 -5 0 l 6
 -48 0 -50 38 -50 113 c 6
 -50 219 l 6
 -50 295 -48 333 -5 333 c 6
EndSplineSet
EndChar

StartChar: NameMe.306
Encoding: 65564 -1 296
GlifName: N_ameM_e.65564
Width: 538
VWidth: 3767
Flags: HW
AnchorPoint: "Anchor-10" 179.89 1461.48 basechar 0
AnchorPoint: "Anchor-7" 305.394 -215.548 basechar 0
LayerCount: 2
Fore
SplineSet
335 702 m 0
 338.865122446 426.1380512 332.641601562 333 522 333 c 2
 543 333 l 2
 570 333 573 294 573 217 c 6
 573 114 l 6
 573 38 569 0 543 0 c 2
 522 0 l 2
 221.512695312 0 158.030111753 142.574126725 142 549 c 0
 129.497070312 865.998046875 122 977 88 1185 c 1
 249 1357 l 2
 303 1416 317.245117188 1421.57910156 321 1313 c 0
 330.799804688 1029.65527344 331.239257812 970.412109375 335 702 c 0
EndSplineSet
EndChar

StartChar: NameMe.65567
Encoding: 65565 -1 297
GlifName: N_ameM_e.65565
Width: 713
VWidth: 3943
Flags: HW
LayerCount: 2
Fore
SplineSet
574.833518108 298 m 1
 556 298 l 2
 457.371728762 298 414.05785481 254.280988519 384.1199485 190.525193917 c 1
 516.114124008 160.874292533 l 2
 553.317361684 152.37069535 572 126.819907184 572 87 c 0
 572 40.071628187 558.66380608 -4.14778807621 529.973686235 -41.0350850198 c 0
 483.72898873 -102.694681694 403.804176517 -133 294 -133 c 0
 230.476969006 -133 172.828048374 -122.928353489 124.076923077 -102.615384615 c 2
 119.644382113 -100.768492547 l 1
 121.310690787 -96.264955591 l 1
 158.310690787 3.73504440896 l 1
 160.225447811 8.91006339257 l 1
 165.187328594 6.49617544373 l 2
 201.433488601 -11.1370915868 244.651865713 -21 295 -21 c 0
 402.681853653 -21 468.939985355 -0.720396705098 497.220318377 32.273325154 c 0
 503.963148197 39.9794163774 506 44.6402961619 506 50 c 0
 506 74.5183206871 438.604677509 86.3797451108 369.717451278 105.167170446 c 0
 337.064979013 113.593614902 319 134.737723369 319 167 c 0
 319 178.576015682 321.096326704 192.064899924 325.21082616 205.437023155 c 0
 356.422201494 312.159790427 408.225739818 380.837376851 479.034461904 410.597564395 c 0
 502.743170073 420.905698381 528.494445232 425 554 425 c 0
 577.579725865 425 602.107687646 420.901233552 626.58113883 412.74341649 c 2
 630.309062351 411.500775317 l 1
 629.982728791 407.584772601 l 2
 627.939626979 383.06755086 620.893465519 346.967501063 609.868440894 299.860577663 c 2
 608.901430468 295.728805843 l 1
 604.667404947 296.011074211 l 1
 574.833518108 298 l 1
EndSplineSet
EndChar

StartChar: uni060D
Encoding: 1549 1549 298
Width: 828
VWidth: 4036
Flags: HW
LayerCount: 2
Fore
SplineSet
713 1426 m 5
 157 -199 l 5
 55 -168 l 1
 611 1457 l 1
 713 1426 l 5
EndSplineSet
EndChar

StartChar: NameMe.65541
Encoding: 65541 -1 299
Width: 599
VWidth: 3807
Flags: HW
AnchorPoint: "Anchor-10" 328.943 1311.83 basechar 0
AnchorPoint: "Anchor-7" 357.044 -246.154 basechar 0
LayerCount: 2
Fore
SplineSet
-5 333 m 2
 100 333 l 2
 216 333 343 346.641601562 343 407 c 0
 343 439.73046875 280.788085938 537.544921875 225 611 c 1
 348 831 l 2
 362 857 373 869 380 869 c 0
 388 869 398 858 412 837 c 0
 488 720 517 603 517 454 c 0
 517 188 372 0 102 0 c 2
 -5 0 l 2
 -48 0 -50 38 -50 113 c 2
 -50 219 l 2
 -50 295 -48 333 -5 333 c 2
EndSplineSet
EndChar

StartChar: NameMe.65542
Encoding: 65542 -1 300
Width: 743
VWidth: 3807
Flags: HW
AnchorPoint: "Anchor-10" 403.931 1197.71 basechar 0
AnchorPoint: "Anchor-7" 377.847 -204.398 basechar 0
LayerCount: 2
Fore
SplineSet
-5 333 m 2
 115 333 l 2
 313 333 392 392 395 511 c 2
 398 615 l 5
 515 615 l 5
 521 515 l 2
 527 394 535 333 725 333 c 2
 748 333 l 2
 775 333 778 294 778 217 c 2
 778 114 l 2
 778 38 775 0 748 0 c 2
 726 0 l 2
 598 0 520 58 462 154 c 1
 392 58 247 0 108 0 c 2
 -5 0 l 2
 -48 0 -50 38 -50 113 c 2
 -50 219 l 2
 -50 295 -48 333 -5 333 c 2
EndSplineSet
EndChar

StartChar: uniFBFD.compact
Encoding: 65575 -1 320
Width: 1483
VWidth: 3808
Flags: HW
AnchorPoint: "Anchor-10" 709.6 587.22 basechar 0
AnchorPoint: "Anchor-7" 723.902 -802.086 basechar 0
LayerCount: 2
Fore
SplineSet
81.8388671875 -188.728515625 m 0
 81.8388671875 -59.1923828125 118.984375 77.8017578125 193.275390625 222.25390625 c 1
 283.133789062 184.474609375 l 1
 249.044921875 90.158203125 231.836914062 1.8662109375 231.509765625 -80.400390625 c 0
 231.834960938 -244.05078125 392.079101562 -325.875976562 712.240234375 -325.875976562 c 0
 958.822265625 -325.875976562 1140.23144531 -295.08984375 1260 -234.609375 c 0
 1289.85351562 -219.610351562 1286.84863281 -210.272460938 1250.98632812 -206.59765625 c 2
 1040.52539062 -184.620117188 l 2
 936.629882812 -174.022460938 883.932617188 -128.221679688 883.932617188 -51 c 0
 883.932617188 106.797851562 1019.35644531 333.000976562 1175.61914062 333.000976562 c 2
 1488.11523438 333.000976562 l 2
 1514.64257812 333 1527.90625 294.361328125 1527.90625 217.083007812 c 2
 1527.90625 113.83203125 l 2
 1527.96875 37.9443359375 1514.70507812 0 1488.11523438 0 c 2
 1468.75 0 l 2
 1350.58300781 0 1152.6875 82.2294921875 1085.5703125 82.2294921875 c 0
 1044.50292969 82.2294921875 1025.41281516 -11.9882907811 1024.51269531 -18.1064453125 c 1
 1260 -44 l 2
 1355.8309608 -54.5373163433 1413.25195312 -84.87109375 1413.25195312 -171.794921875 c 0
 1413.25195312 -443.44324969 1094.3671875 -623.817382812 689.452148438 -623.817382812 c 0
 335.451171875 -623.817382812 81.8388671875 -514.959760875 81.8388671875 -188.728515625 c 0
EndSplineSet
EndChar

StartChar: uniFD3E
Encoding: 64830 64830 325
Width: 1557
VWidth: 0
Flags: HW
LayerCount: 2
Fore
SplineSet
836.172851562 681.125 m 0
 836.172851562 689.135416667 834.845703125 696.339192708 832.19140625 702.736328125 c 128
 829.536458333 709.134114583 825.361979167 715.179361979 819.66796875 720.872070312 c 128
 813.975260417 726.565429687 807.930338542 730.739583333 801.533203125 733.39453125 c 128
 795.135416667 736.048828125 787.931640625 737.375976562 779.921875 737.375976562 c 0
 777.625651041 737.375976562 775.409830729 737.270182291 773.274414062 737.05859375 c 128
 771.138346354 736.847005209 769.057942708 736.526692709 767.033203125 736.09765625 c 128
 765.009765625 735.66796875 763.045247396 735.124023437 761.139648438 734.465820312 c 128
 759.234700521 733.807617187 757.375325521 733.036132813 755.561523438 732.151367188 c 128
 753.747070313 731.265950521 751.970703125 730.257161459 750.232421875 729.125 c 128
 748.494791666 727.9921875 746.792317708 726.741861979 745.125 725.374023438 c 128
 743.457682292 724.005533854 741.807291667 722.504882812 740.173828125 720.872070312 c 0
 734.481119792 715.178710937 730.307617187 709.133463542 727.653320312 702.736328125 c 128
 724.999023437 696.338541667 723.671875 689.134765625 723.671875 681.125 c 128
 723.671875 673.113932292 724.999023437 665.909830729 727.653320312 659.512695312 c 128
 730.308268229 653.115559896 734.481770834 647.070638021 740.173828125 641.377929688 c 128
 745.867838542 635.684570313 751.913411458 631.510742187 758.310546875 628.856445312 c 128
 764.708333333 626.202148437 771.912109375 624.875 779.921875 624.875 c 0
 795.417317708 624.875 808.666341145 630.375976563 819.668945312 641.377929688 c 128
 830.671549479 652.379882813 836.172851562 665.62890625 836.172851562 681.125 c 0
988.077148438 681.125 m 128
 988.077148438 652.669921875 982.946614584 626.064453125 972.685546875 601.30859375 c 128
 962.423828125 576.552734375 947.222981771 554.104817709 927.083007812 533.96484375 c 0
 886.419596354 493.30078125 837.365885417 472.96875 779.921875 472.96875 c 0
 751.466796875 472.96875 724.861328125 478.099609375 700.10546875 488.361328125 c 128
 675.349609375 498.623046875 652.901367188 513.82421875 632.760742188 533.96484375 c 128
 612.619466146 554.104817709 597.418619792 576.552734375 587.158203125 601.30859375 c 128
 576.896484375 626.064453125 571.765625 652.669921875 571.765625 681.125 c 0
 571.765625 738.569010417 592.097330729 787.623046875 632.760742188 828.287109375 c 0
 646.174153646 841.69921875 660.634765625 852.933919271 676.142578125 861.991210938 c 128
 691.651041667 871.047851563 708.086914063 877.860351563 725.450195312 882.428710938 c 128
 742.813476563 886.996419271 760.970703125 889.280273438 779.921875 889.280273438 c 0
 808.377604167 889.280273438 834.983072917 884.150065105 859.73828125 873.889648438 c 128
 884.493489583 863.627929687 906.94140625 848.426757812 927.08203125 828.286132812 c 128
 947.22265625 808.144856771 962.423828125 785.696614583 972.685546875 760.94140625 c 128
 982.946614584 736.186197917 988.077148438 709.580729167 988.077148438 681.125 c 128
741.346679688 210.404296875 m 0
 785.922200521 13.251953125 862.229817709 -139.9921875 970.26953125 -249.328125 c 1
 914.194661458 -125.404296875 870.813802083 25.9469401043 840.126953125 204.725585938 c 0
 837.985677083 217.200846354 838.737955729 229.174804687 842.383789062 240.647460938 c 128
 846.029622395 252.119466146 852.327473958 262.331380208 861.27734375 271.283203125 c 2
 903.474609375 313.479492188 l 2
 918.305989584 328.309570313 936.208333334 335.724609375 957.181640625 335.724609375 c 2
 1132.984375 335.724609375 l 1
 1132.984375 511.530273438 l 2
 1132.984375 532.504882813 1140.4000651 550.406901042 1155.23144531 565.236328125 c 2
 1279.54296875 689.547851562 l 1
 1155.23144531 813.858398438 l 2
 1140.4000651 828.689127605 1132.984375 846.591471355 1132.984375 867.565429688 c 2
 1132.984375 1043.37011719 l 1
 957.181640625 1043.37011719 l 2
 936.208333334 1043.37011719 918.305664063 1050.78548177 903.473632812 1065.61621094 c 2
 858.182617188 1110.91015625 l 2
 839.906575521 1129.18489583 832.808268229 1151.08268229 836.887695312 1176.60351562 c 0
 853.249674479 1278.96744791 873.7109375 1373.32226562 898.271484375 1459.66796875 c 128
 922.831380208 1546.01302084 951.432291667 1624.1546224 984.07421875 1694.09277344 c 1
 859.342447917 1573.40266927 774.904947917 1395.46484375 730.76171875 1160.27929688 c 0
 730.053385417 1156.50455729 729.072916667 1152.81966146 727.8203125 1149.22460938 c 128
 726.569010417 1145.63020833 725.065429687 1142.16829427 723.309570312 1138.83886719 c 128
 721.553059896 1135.51009114 719.544596355 1132.31445312 717.284179688 1129.25195312 c 128
 715.023111979 1126.18945312 712.534505208 1123.29947916 709.818359375 1120.58203125 c 2
 654.8515625 1065.61621094 l 2
 640.021484375 1050.78548177 622.119140625 1043.37011719 601.14453125 1043.37011719 c 2
 425.340820312 1043.37011719 l 1
 425.340820312 867.565429688 l 2
 425.340820312 846.591471355 417.925455729 828.689453125 403.094726562 813.859375 c 2
 278.783203125 689.547851562 l 1
 403.094726562 565.237304688 l 2
 417.925455729 550.407226563 425.340820312 532.504882813 425.340820312 511.530273438 c 2
 425.340820312 335.724609375 l 1
 601.14453125 335.724609375 l 2
 622.119140625 335.724609375 640.021158854 328.309570313 654.850585938 313.479492188 c 2
 720.971679688 247.360351562 l 2
 731.325846355 237.005533854 738.117513021 224.686848958 741.346679688 210.404296875 c 0
598.224609375 155.278320312 m 1
 569.68359375 183.8203125 l 1
 349.389648438 183.8203125 l 2
 345.663085938 183.8203125 341.954752605 184.1328125 338.264648438 184.7578125 c 128
 334.573893229 185.383463541 330.989908854 186.286783854 327.512695312 187.467773438 c 128
 324.036132812 188.648763021 320.606445312 190.104817708 317.223632812 191.8359375 c 128
 313.841471354 193.56640625 310.578125 195.522786458 307.43359375 197.705078125 c 128
 304.290364583 199.88671875 301.223307292 202.305013021 298.232421875 204.959960938 c 0
 292.916015625 209.680013021 288.409505208 214.930338541 284.712890625 220.7109375 c 128
 281.016927083 226.492838541 278.213541666 232.680989583 276.302734375 239.275390625 c 128
 274.391927084 245.869791667 273.436523438 252.702148438 273.436523438 259.772460938 c 2
 273.436523438 480.069335938 l 1
 117.6640625 635.840820312 l 2
 112.511067708 640.993815104 108.184570312 647.116536458 104.684570312 654.208984375 c 128
 101.184570312 661.301432292 98.234375 669.451171875 95.833984375 678.658203125 c 0
 89.9381510417 701.2734375 97.21484375 722.805338542 117.6640625 743.25390625 c 2
 273.436523438 899.02734375 l 1
 273.436523438 1119.32324219 l 2
 273.436523438 1137.55436198 280.483398438 1154.60677084 294.577148438 1170.48046875 c 0
 309.254231771 1187.01041666 327.525065105 1195.27539062 349.389648438 1195.27539062 c 2
 569.68359375 1195.27539062 l 1
 585.991210938 1211.58203125 l 1
 671.776367187 1636.65104167 881.738281248 1898.51106771 1215.87695312 1997.16210938 c 0
 1224.58333333 2000.34309896 1232.82454427 2001.734375 1240.60058594 2001.3359375 c 128
 1248.37662761 2000.93815104 1255.58691406 1998.93684896 1262.23144531 1995.33203125 c 128
 1268.87597656 1991.72786458 1274.81575521 1986.81901042 1280.05078125 1980.60546875 c 128
 1285.28710938 1974.39192708 1289.71777344 1967.06119792 1293.34277344 1958.61328125 c 0
 1301.07389323 1940.59700521 1301.60807291 1913.97265625 1294.9453125 1878.74023438 c 2
 1293.76074219 1872.47558594 l 1
 1289.03320312 1868.19921875 l 2
 1148.99153645 1741.49544271 1050.66113281 1517.1875 994.041992188 1195.27539062 c 1
 1208.9375 1195.27539062 l 2
 1218.13476563 1195.27539062 1227.05696615 1193.44173177 1235.70410156 1189.77441406 c 128
 1244.35188802 1186.10709635 1252.48177083 1180.89420573 1260.09375 1174.13574219 c 0
 1276.62434896 1159.4593099 1284.88964844 1141.18847656 1284.88964844 1119.32324219 c 2
 1284.88964844 899.02734375 l 1
 1440.66503906 743.252929688 l 2
 1450.28157552 733.633789063 1457.55729167 719.361328125 1462.4921875 700.435546875 c 0
 1465.47786458 688.984375 1464.95605468 677.725585937 1460.92675781 666.659179688 c 128
 1456.8968099 655.592122396 1450.14225261 645.319010417 1440.66308594 635.83984375 c 2
 1284.88964844 480.069335938 l 1
 1284.88964844 259.772460938 l 2
 1284.88964844 250.574544271 1283.05598959 241.652018229 1279.38867188 233.004882812 c 128
 1275.72135417 224.357096354 1270.50846354 216.227539063 1263.75 208.616210938 c 0
 1249.07356771 192.085611979 1230.80273437 183.8203125 1208.9375 183.8203125 c 2
 998.271484375 183.8203125 l 1
 1056.08333333 -119.32421875 1151.89257812 -324.745442708 1285.69921875 -432.443359375 c 0
 1300.62825521 -444.4609375 1307.92740886 -458.565104166 1307.59667969 -474.755859375 c 0
 1306.93652344 -507.050130208 1281.34700521 -536.486979167 1230.828125 -563.06640625 c 2
 1224.02246094 -566.6484375 l 1
 1216.64355469 -564.477539062 l 2
 897.39420573 -470.580403646 691.254557292 -230.661783855 598.224609375 155.278320312 c 1
EndSplineSet
EndChar

StartChar: uniFD3F
Encoding: 64831 64831 326
Width: 1557
VWidth: 0
Flags: HW
LayerCount: 2
Fore
SplineSet
722.153320312 681.125 m 0
 722.153320312 673.113932292 723.48046875 665.909830729 726.134765625 659.512695312 c 128
 728.790364583 653.115559896 732.964192708 647.070638021 738.65625 641.377929688 c 128
 744.349609375 635.684570313 750.395182291 631.510742187 756.79296875 628.856445312 c 128
 763.190755209 626.202148437 770.394856771 624.875 778.405273438 624.875 c 0
 793.900716146 624.875 807.149739583 630.375976563 818.15234375 641.377929688 c 128
 829.154947917 652.379882813 834.65625 665.62890625 834.65625 681.125 c 128
 834.65625 696.620442708 829.154622396 709.869466145 818.151367188 720.872070312 c 128
 807.149414063 731.874674479 793.900716146 737.375976562 778.405273438 737.375976562 c 0
 775.187825521 737.375976562 772.122395833 737.167317708 769.208984375 736.75 c 128
 766.296223958 736.333984375 763.487304687 735.700520833 760.782226562 734.849609375 c 128
 758.076497395 733.998697917 755.466145833 732.915364584 752.951171875 731.599609375 c 128
 750.436197917 730.284505208 747.997070313 728.739583333 745.633789062 726.96484375 c 128
 743.269856771 725.190755209 740.944010417 723.159830729 738.65625 720.872070312 c 0
 727.654296875 709.869466145 722.153320312 696.620442708 722.153320312 681.125 c 0
570.248046875 681.125 m 0
 570.248046875 692.495442708 571.072591146 703.591145833 572.721679688 714.412109375 c 128
 574.371419271 725.233723958 576.837565104 735.735677083 580.120117188 745.91796875 c 128
 583.402018229 756.098958333 587.485026042 765.949869792 592.369140625 775.470703125 c 128
 597.25390625 784.990885416 602.942382812 794.161783854 609.434570312 802.983398438 c 128
 615.926106771 811.805013021 623.195963542 820.239583333 631.244140625 828.287109375 c 0
 651.384765625 848.427083333 673.833007813 863.627929687 698.588867188 873.889648438 c 128
 723.344726563 884.150065105 749.950195313 889.280273438 778.405273438 889.280273438 c 0
 792.616861979 889.280273438 806.396158854 887.990559896 819.743164062 885.411132812 c 128
 833.090820313 882.832356771 845.91796875 878.9921875 858.224609375 873.890625 c 128
 870.53125 868.789713541 882.31640625 862.428385416 893.580078125 854.806640625 c 128
 904.844401042 847.184244792 915.505859375 838.344075521 925.564453125 828.286132812 c 0
 945.705729167 808.144856771 960.906901042 785.696614583 971.16796875 760.94140625 c 128
 981.4296875 736.186197917 986.560546875 709.580729167 986.560546875 681.125 c 0
 986.560546875 662.173828125 984.276367187 644.016927084 979.708007812 626.654296875 c 128
 975.140299479 609.290364584 968.327799479 592.854492188 959.270507812 577.346679688 c 128
 950.213216145 561.838216146 938.978190104 547.377604167 925.565429688 533.96484375 c 0
 884.902669271 493.30078125 835.849283854 472.96875 778.405273438 472.96875 c 0
 759.454101563 472.96875 741.296875 475.252604167 723.93359375 479.8203125 c 128
 706.5703125 484.389322917 690.134765625 491.202148437 674.626953125 500.258789062 c 128
 659.117838542 509.316080729 644.656901042 520.551106771 631.244140625 533.963867188 c 0
 590.580078125 574.627278646 570.248046875 623.680989583 570.248046875 681.125 c 0
816.98046875 210.404296875 m 0
 818.569661458 217.436197917 821.088216145 224.078776042 824.536132812 230.33203125 c 128
 827.983398437 236.585286458 832.256510417 242.261393229 837.35546875 247.360351562 c 2
 903.474609375 313.479492188 l 2
 918.305989584 328.309570313 936.208333334 335.724609375 957.181640625 335.724609375 c 2
 1132.984375 335.724609375 l 1
 1132.984375 511.530273438 l 2
 1132.984375 532.504882813 1140.4000651 550.406901042 1155.23144531 565.236328125 c 2
 1279.54296875 689.547851562 l 1
 1155.23144531 813.858398438 l 2
 1140.4000651 828.689127605 1132.984375 846.591471355 1132.984375 867.565429688 c 2
 1132.984375 1043.37011719 l 1
 957.181640625 1043.37011719 l 2
 936.208333334 1043.37011719 918.305664063 1050.78548177 903.473632812 1065.61621094 c 2
 848.5078125 1120.58398438 l 2
 837.435546875 1131.65755209 830.454752604 1144.88932292 827.565429688 1160.27929688 c 0
 812.786132813 1239.01888021 793.431315104 1311.41373698 769.500976562 1377.46386719 c 128
 745.570638021 1443.51269532 717.3515625 1502.82519532 684.84375 1555.40136719 c 128
 652.336588541 1607.9781901 615.47265625 1654.20898437 574.251953125 1694.09375 c 1
 607.190104167 1623.51953125 635.8515625 1545.3030599 660.236328125 1459.44433594 c 128
 684.62109375 1373.58561198 705.021484375 1279.30533854 721.4375 1176.60351562 c 0
 725.516927083 1151.08268229 718.419270833 1129.18489583 700.14453125 1110.91015625 c 2
 654.8515625 1065.61621094 l 2
 640.021484375 1050.78548177 622.119140625 1043.37011719 601.14453125 1043.37011719 c 2
 425.340820312 1043.37011719 l 1
 425.340820312 867.565429688 l 2
 425.340820312 846.591471355 417.925455729 828.689453125 403.094726562 813.859375 c 2
 278.783203125 689.547851562 l 1
 403.094726562 565.237304688 l 2
 417.925455729 550.407226563 425.340820312 532.504882813 425.340820312 511.530273438 c 2
 425.340820312 335.724609375 l 1
 601.14453125 335.724609375 l 2
 611.362630209 335.724609375 621.061848959 333.823242187 630.2421875 330.020507812 c 128
 639.423177083 326.218424479 647.625976563 320.704752604 654.850585938 313.479492188 c 2
 697.049804688 271.282226562 l 2
 715.583658855 252.746419271 722.633463542 230.560872396 718.19921875 204.725585938 c 0
 687.512369791 25.9469401043 644.131835937 -125.403645833 588.057617188 -249.326171875 c 1
 696.096028646 -139.991536458 772.403645833 13.251953125 816.98046875 210.404296875 c 0
960.100585938 155.278320312 m 1
 867.072591146 -230.661783855 660.93359375 -470.580403646 341.68359375 -564.477539062 c 2
 334.3046875 -566.6484375 l 1
 327.499023438 -563.06640625 l 2
 276.980143229 -536.486979167 251.390299479 -507.050455729 250.729492188 -474.756835938 c 0
 250.560872396 -466.532877605 252.450195313 -458.807617188 256.397460938 -451.581054688 c 128
 260.345377605 -444.353841146 265.755859375 -437.973958333 272.62890625 -432.44140625 c 0
 406.434244791 -324.744791667 502.242838541 -119.32421875 560.0546875 183.8203125 c 1
 349.389648438 183.8203125 l 2
 338.758789063 183.8203125 328.742513021 185.951497396 319.340820312 190.213867188 c 128
 309.938476563 194.476236979 301.683919271 200.610026042 294.577148438 208.615234375 c 0
 287.818684896 216.227213542 282.60546875 224.356770833 278.9375 233.00390625 c 128
 275.270182292 241.651692709 273.436523438 250.574544271 273.436523438 259.772460938 c 2
 273.436523438 480.069335938 l 1
 117.6640625 635.83984375 l 2
 108.184244792 645.319010417 101.4296875 655.591796875 97.400390625 666.658203125 c 128
 93.37109375 677.724609375 92.8489583333 688.983398437 95.833984375 700.434570312 c 0
 100.768880208 719.361002604 108.045572917 733.634114583 117.6640625 743.25390625 c 2
 273.436523438 899.02734375 l 1
 273.436523438 1119.32324219 l 2
 273.436523438 1124.62467448 273.979817709 1129.80891927 275.06640625 1134.87597656 c 128
 276.152994791 1139.94303385 277.744140625 1144.78483073 279.83984375 1149.40136719 c 128
 281.935546875 1154.01855469 284.528645834 1158.41080729 287.619140625 1162.578125 c 128
 290.710286458 1166.74609375 294.247721354 1170.59830729 298.231445312 1174.13476562 c 0
 303.252278645 1178.59309895 308.469401041 1182.37467448 313.8828125 1185.47949219 c 128
 319.296223959 1188.58496094 325.024739584 1190.99414062 331.068359375 1192.70703125 c 128
 337.111328125 1194.41927083 343.218424479 1195.27539062 349.389648438 1195.27539062 c 2
 564.284179688 1195.27539062 l 1
 507.665690104 1517.1875 409.335611979 1741.49544271 269.293945312 1868.19921875 c 2
 264.56640625 1872.47558594 l 1
 263.381835938 1878.73925781 l 2
 256.717773438 1913.97233073 257.251627605 1940.59700521 264.983398438 1958.61328125 c 0
 267.920247396 1965.45638021 271.392578125 1971.57845052 275.400390625 1976.97949219 c 128
 279.408203125 1982.37923177 283.893554687 1986.92480469 288.856445312 1990.61621094 c 128
 293.819986979 1994.30696615 299.116210937 1997.078125 304.745117188 1998.9296875 c 128
 310.372721355 2000.78255209 316.394856771 2001.57617188 322.811523438 2001.31054688 c 128
 329.228190105 2001.04492188 335.774414063 1999.66210938 342.450195312 1997.16210938 c 0
 676.588216145 1898.51106771 886.549804687 1636.65136719 972.334960938 1211.58300781 c 1
 988.643554688 1195.27539062 l 1
 1208.9375 1195.27539062 l 2
 1219.56835937 1195.27539062 1229.58430989 1193.14420573 1238.98535156 1188.88183594 c 128
 1248.38769531 1184.61881511 1256.64225261 1178.48502604 1263.74902344 1170.48046875 c 0
 1277.84277344 1154.60677084 1284.88964844 1137.55436198 1284.88964844 1119.32324219 c 2
 1284.88964844 899.02734375 l 1
 1440.66308594 743.25390625 l 2
 1461.11230469 722.805338542 1468.38867187 701.2734375 1462.4921875 678.658203125 c 0
 1457.55729167 659.731770834 1450.28092448 645.458984375 1440.66308594 635.83984375 c 2
 1284.88964844 480.069335938 l 1
 1284.88964844 259.772460938 l 2
 1284.88964844 237.907226563 1276.62467448 219.63671875 1260.09472656 204.9609375 c 0
 1252.48209635 198.201822917 1244.35221354 192.988606771 1235.70507812 189.321289062 c 128
 1227.05729167 185.653971354 1218.13476563 183.8203125 1208.9375 183.8203125 c 2
 988.643554688 183.8203125 l 1
 960.100585938 155.278320312 l 1
EndSplineSet
EndChar

StartChar: slash
Encoding: 47 47 327
Width: 868
Flags: HW
LayerCount: 2
Fore
SplineSet
778 1554 m 1
 210 -96 l 1
 89 -96 l 5
 657 1554 l 5
 778 1554 l 1
EndSplineSet
EndChar
